<svg width="1402" height="1050" viewBox="0 0 1402 1050" fill="none" xmlns="http://www.w3.org/2000/svg">
<g clip-path="url(#clip0_707_3101)">
<path d="M204.571 346.894H210.995V351.549C212.101 349.871 213.619 348.501 215.406 347.57C217.193 346.639 219.19 346.177 221.206 346.229C229.301 346.229 235.391 352.362 235.391 362.374C235.391 372.497 229.301 378.889 221.132 378.889C219.146 378.924 217.183 378.466 215.42 377.556C213.656 376.647 212.148 375.314 211.032 373.68V390.601H204.571V346.894ZM228.484 362.67V362.19C228.484 355.465 224.771 351.808 219.535 351.808C214.3 351.808 210.661 356.204 210.661 362.448V363.002C210.661 369.172 214.003 373.384 219.535 373.384C225.068 373.384 228.484 369.431 228.484 362.67Z" fill="black"/>
<path d="M240.515 333.446H247.124V378.298H240.515V333.446Z" fill="black"/>
<path d="M253.548 365.995V346.894H260.158V365.662C260.158 370.502 262.311 373.051 266.582 373.051C271.817 373.051 274.008 368.581 274.008 361.968V346.894H280.58V378.298H274.194V372.904C273.443 374.725 272.135 376.265 270.456 377.306C268.776 378.347 266.811 378.836 264.836 378.704C257.781 378.704 253.548 373.975 253.548 365.995Z" fill="black"/>
<path d="M285.036 384.948C285.141 383.329 285.763 381.785 286.811 380.542C287.86 379.299 289.281 378.422 290.866 378.039C289.501 377.857 288.241 377.215 287.295 376.22C286.349 375.225 285.774 373.937 285.667 372.571C285.667 369.837 287.747 367.768 291.349 366.992C289.948 365.956 288.812 364.608 288.032 363.055C287.251 361.502 286.848 359.788 286.856 358.052C286.916 356.393 287.312 354.763 288.022 353.26C288.732 351.758 289.74 350.414 290.985 349.31C292.23 348.205 293.688 347.363 295.269 346.833C296.85 346.304 298.523 346.098 300.186 346.229C302.342 346.116 304.492 346.544 306.438 347.474C308.385 348.403 310.065 349.805 311.326 351.549C311.779 350.17 312.667 348.973 313.857 348.135C315.047 347.297 316.477 346.861 317.935 346.894V353.692C317.082 353.33 316.138 353.235 315.229 353.42C314.321 353.605 313.49 354.06 312.848 354.726C313.159 355.795 313.321 356.902 313.331 358.015C313.331 365.108 308.058 369.726 300.037 369.726C298.603 369.728 297.176 369.516 295.804 369.098H295.359C292.945 369.098 291.646 370.059 291.646 371.389C291.646 372.719 293.576 373.901 296.51 373.901H303.082C313.108 373.901 318.195 377.152 318.195 383.544C318.195 389.936 311.66 394 301.003 394C290.346 394 285.036 390.786 285.036 384.948ZM312.031 384.024C312.031 380.884 309.246 379.48 302.6 379.48H298.664C294.393 379.48 290.792 381.29 290.792 384.394C290.792 387.497 294.505 389.049 301.226 389.049C307.947 389.049 312.031 387.128 312.031 384.024V384.024ZM307.241 358.162V357.904C307.241 356.013 306.486 354.199 305.142 352.862C303.798 351.524 301.975 350.773 300.075 350.773C298.174 350.773 296.351 351.524 295.007 352.862C293.663 354.199 292.908 356.013 292.908 357.904V358.162C293.089 359.928 293.922 361.565 295.246 362.754C296.57 363.944 298.291 364.603 300.075 364.603C301.859 364.603 303.579 363.944 304.903 362.754C306.227 361.565 307.06 359.928 307.241 358.162Z" fill="black"/>
<path d="M227.481 301.894C278.504 301.894 319.865 260.739 319.865 209.973C319.865 159.206 278.504 118.052 227.481 118.052C176.459 118.052 135.097 159.206 135.097 209.973C135.097 260.739 176.459 301.894 227.481 301.894Z" fill="#E51F2F"/>
<path d="M258.375 288.187C246.369 287.742 234.888 283.173 225.885 275.256L213.074 262.473C211.98 261.391 211.111 260.105 210.518 258.687C209.925 257.27 209.62 255.75 209.62 254.215C209.62 252.68 209.925 251.16 210.518 249.743C211.111 248.326 211.98 247.04 213.074 245.958L263.388 195.638C265.621 193.508 268.594 192.32 271.687 192.32C274.78 192.32 277.753 193.508 279.986 195.638L292.796 208.347C293.131 208.717 323.579 240.749 290.977 273.224L290.68 273.52C279.429 284.566 268.215 288.187 258.375 288.187ZM217.753 250.428C216.794 251.384 216.255 252.68 216.255 254.031C216.255 255.381 216.794 256.677 217.753 257.633L230.526 270.379C231.603 271.414 258.338 296.241 286.224 268.643L286.447 268.384C314.11 240.638 289.12 214.074 288.006 212.965L275.27 200.293C274.296 199.365 272.999 198.847 271.65 198.847C270.301 198.847 269.004 199.365 268.03 200.293L217.753 250.428Z" fill="black"/>
<path fill-rule="evenodd" clip-rule="evenodd" d="M187.75 220.576C186.163 222.151 184.013 223.035 181.772 223.035C179.531 223.035 177.381 222.151 175.794 220.576L163.132 207.867C163.132 207.867 134.206 178.31 164.877 147.682C195.548 117.128 225.365 145.946 225.365 145.946L238.138 158.655C239.721 160.234 240.61 162.373 240.61 164.603C240.61 166.833 239.721 168.973 238.138 170.552L187.75 220.576Z" fill="black"/>
<path d="M216.889 242.422L200.268 225.885C199.83 225.449 199.583 224.857 199.583 224.24C199.583 223.622 199.83 223.03 200.268 222.594L206.517 216.376C206.956 215.94 207.551 215.694 208.172 215.694C208.792 215.694 209.387 215.94 209.826 216.376L226.446 232.913L216.889 242.422Z" fill="black"/>
<path d="M250.542 208.949L233.921 192.413C233.483 191.976 233.236 191.384 233.236 190.767C233.236 190.149 233.483 189.557 233.921 189.121L240.17 182.903C240.609 182.467 241.204 182.221 241.824 182.221C242.445 182.221 243.04 182.467 243.479 182.903L260.099 199.44L250.542 208.949Z" fill="black"/>
<path d="M227.482 310.983C207.403 310.983 187.775 305.059 171.081 293.959C154.386 282.86 141.374 267.085 133.691 248.628C126.007 230.17 123.996 209.861 127.914 190.267C131.831 170.673 141.499 152.675 155.697 138.548C169.895 124.422 187.984 114.801 207.676 110.904C227.369 107.006 247.781 109.007 266.331 116.652C284.881 124.297 300.736 137.244 311.891 153.855C323.046 170.466 329 189.995 329 209.973C328.971 236.753 318.265 262.428 299.233 281.365C280.201 300.302 254.397 310.953 227.482 310.983V310.983ZM227.482 127.103C211.009 127.103 194.906 131.964 181.21 141.069C167.513 150.175 156.838 163.118 150.535 178.26C144.231 193.402 142.581 210.065 145.795 226.14C149.009 242.215 156.941 256.981 168.589 268.57C180.237 280.16 195.077 288.052 211.233 291.25C227.389 294.447 244.135 292.806 259.354 286.534C274.573 280.262 287.58 269.64 296.732 256.013C305.884 242.385 310.768 226.363 310.768 209.973C310.749 188 301.968 166.934 286.352 151.397C270.737 135.86 249.565 127.123 227.482 127.103V127.103Z" fill="black"/>
</g>
<path d="M100.537 458H102.537V451.92L107.337 444.72H105.097L101.557 450.12L98.0566 444.72H95.7766L100.537 451.88V458ZM110.132 458.16C112.912 458.16 114.892 456.14 114.892 453.3C114.892 450.42 112.952 448.4 110.172 448.4C107.392 448.4 105.432 450.42 105.432 453.3C105.432 456.18 107.352 458.16 110.132 458.16ZM110.132 456.5C108.452 456.5 107.412 455.3 107.412 453.36V453.28C107.412 451.3 108.492 450.06 110.172 450.06C111.852 450.06 112.912 451.3 112.912 453.28V453.36C112.912 455.28 111.832 456.5 110.132 456.5ZM119.641 458.16C121.001 458.16 121.921 457.54 122.441 456.38V458H124.401V448.56H122.441V453.08C122.441 455.12 121.721 456.46 120.161 456.46C118.881 456.46 118.241 455.66 118.241 454.2V448.56H116.261V454.3C116.261 456.7 117.521 458.16 119.641 458.16ZM134.446 458.16C136.746 458.16 138.166 456.94 138.786 455.02L136.906 454.44C136.586 455.72 135.926 456.5 134.406 456.5C132.766 456.5 131.806 455.18 131.806 453.32V453.24C131.806 451.36 132.826 450.06 134.466 450.06C135.826 450.06 136.506 450.82 136.826 452.02L138.706 451.44C138.126 449.6 136.726 448.4 134.506 448.4C131.746 448.4 129.826 450.44 129.826 453.26C129.826 456.14 131.626 458.16 134.446 458.16ZM144.194 458.16C146.974 458.16 148.954 456.14 148.954 453.3C148.954 450.42 147.014 448.4 144.234 448.4C141.454 448.4 139.494 450.42 139.494 453.3C139.494 456.18 141.414 458.16 144.194 458.16ZM144.194 456.5C142.514 456.5 141.474 455.3 141.474 453.36V453.28C141.474 451.3 142.554 450.06 144.234 450.06C145.914 450.06 146.974 451.3 146.974 453.28V453.36C146.974 455.28 145.894 456.5 144.194 456.5ZM150.503 458H152.463V452.72C152.463 451.02 153.303 450.1 154.443 450.1C155.563 450.1 156.163 450.78 156.163 452.18V458H158.143V452.72C158.143 451.08 158.863 450.1 160.123 450.1C161.243 450.1 161.843 450.78 161.843 452.18V458H163.823V452.08C163.823 449.74 162.683 448.36 160.883 448.36C159.283 448.36 158.283 449.18 157.823 450.42C157.383 448.92 156.323 448.36 155.223 448.36C153.863 448.36 152.943 449.04 152.463 450.22V448.56H150.503V458ZM165.737 461.72H167.677V456.64C168.337 457.6 169.397 458.2 170.697 458.2C173.137 458.2 174.957 456.28 174.957 453.24V453.22C174.957 450.2 173.137 448.36 170.717 448.36C169.397 448.36 168.317 448.96 167.657 449.96V448.56H165.737V461.72ZM170.217 456.52C168.557 456.52 167.557 455.26 167.557 453.4V453.24C167.557 451.36 168.577 450.04 170.217 450.04C171.837 450.04 172.897 451.14 172.897 453.16V453.3C172.897 455.34 171.817 456.52 170.217 456.52ZM176.499 458H178.479V444.52H176.499V458ZM184.721 458.16C187.141 458.16 188.481 457 189.121 455.54L187.381 454.86C187.021 455.78 186.321 456.56 184.721 456.56C183.121 456.56 182.101 455.58 181.981 453.96H189.081V453.24C189.081 450.26 187.421 448.4 184.641 448.4C181.961 448.4 180.021 450.42 180.021 453.34C180.021 456.24 181.821 458.16 184.721 458.16ZM181.941 452.48C182.141 450.94 183.181 450 184.601 450C186.081 450 186.981 450.86 187.061 452.48H181.941ZM193.364 458H195.044V456.28H193.924C193.324 456.28 193.084 456 193.084 455.4V450.24H195.124V448.56H193.084V445.54L191.184 446.72V448.56H189.684V450.24H191.184V455.64C191.204 457.14 191.644 457.92 193.364 458ZM200.405 458.16C202.825 458.16 204.165 457 204.805 455.54L203.065 454.86C202.705 455.78 202.005 456.56 200.405 456.56C198.805 456.56 197.785 455.58 197.665 453.96H204.765V453.24C204.765 450.26 203.105 448.4 200.325 448.4C197.645 448.4 195.705 450.42 195.705 453.34C195.705 456.24 197.505 458.16 200.405 458.16ZM197.625 452.48C197.825 450.94 198.865 450 200.285 450C201.765 450 202.665 450.86 202.745 452.48H197.625ZM210.043 458.2C211.363 458.2 212.443 457.62 213.103 456.62V458H215.023V444.52H213.103V449.98C212.423 448.98 211.363 448.36 210.063 448.36C207.603 448.36 205.803 450.32 205.803 453.32C205.803 456.38 207.623 458.2 210.043 458.2ZM210.543 456.52C208.923 456.52 207.863 455.42 207.863 453.4V453.26C207.863 451.22 208.943 450.04 210.543 450.04C212.203 450.04 213.203 451.3 213.203 453.16V453.32C213.203 455.2 212.163 456.52 210.543 456.52ZM242.013 458.24C243.373 458.24 244.553 457.7 245.193 456.58V458H247.093L247.073 456.54V451.88C247.073 449.48 245.633 448.4 243.213 448.4C240.713 448.4 239.033 449.68 238.973 451.8H240.953V451.68C241.033 450.62 241.793 449.98 243.193 449.98C244.633 449.98 245.213 450.58 245.213 451.36V451.5C245.013 452.02 244.033 452.12 242.433 452.46C240.333 452.92 238.753 453.4 238.753 455.52C238.753 457.14 239.993 458.24 242.013 458.24ZM242.373 456.74C241.333 456.74 240.753 456.22 240.753 455.44C240.753 454.44 241.633 454.1 242.713 453.82C243.633 453.6 244.633 453.44 245.213 453.04V454.2C245.053 456.04 243.753 456.74 242.373 456.74ZM253.118 458.16C255.418 458.16 256.838 456.94 257.458 455.02L255.578 454.44C255.258 455.72 254.598 456.5 253.078 456.5C251.438 456.5 250.478 455.18 250.478 453.32V453.24C250.478 451.36 251.498 450.06 253.138 450.06C254.498 450.06 255.178 450.82 255.498 452.02L257.378 451.44C256.798 449.6 255.398 448.4 253.178 448.4C250.418 448.4 248.498 450.44 248.498 453.26C248.498 456.14 250.298 458.16 253.118 458.16ZM261.646 458H263.326V456.28H262.206C261.606 456.28 261.366 456 261.366 455.4V450.24H263.406V448.56H261.366V445.54L259.466 446.72V448.56H257.966V450.24H259.466V455.64C259.486 457.14 259.926 457.92 261.646 458ZM264.896 447.04H267.016V444.96H264.896V447.04ZM264.956 458H266.936V448.56H264.956V458ZM271.661 458.02H273.481L277.001 448.56H274.941L272.561 455.66L270.061 448.56H268.021L271.661 458.02ZM277.982 447.04H280.102V444.96H277.982V447.04ZM278.042 458H280.022V448.56H278.042V458ZM285.044 458H286.724V456.28H285.604C285.004 456.28 284.764 456 284.764 455.4V450.24H286.804V448.56H284.764V445.54L282.864 446.72V448.56H281.364V450.24H282.864V455.64C282.884 457.14 283.324 457.92 285.044 458ZM288.294 447.04H290.414V444.96H288.294V447.04ZM288.354 458H290.334V448.56H288.354V458ZM296.596 458.16C299.016 458.16 300.356 457 300.996 455.54L299.256 454.86C298.896 455.78 298.196 456.56 296.596 456.56C294.996 456.56 293.976 455.58 293.856 453.96H300.956V453.24C300.956 450.26 299.296 448.4 296.516 448.4C293.836 448.4 291.896 450.42 291.896 453.34C291.896 456.24 293.696 458.16 296.596 458.16ZM293.816 452.48C294.016 450.94 295.056 450 296.476 450C297.956 450 298.856 450.86 298.936 452.48H293.816ZM306.036 458.26C308.176 458.26 309.716 456.98 309.716 455.24C309.716 453.38 307.936 452.76 306.216 452.42C304.496 452.08 303.856 451.94 303.856 451.16C303.856 450.44 304.516 449.96 305.536 449.96C306.516 449.96 307.376 450.4 307.916 451.22L309.616 450.38C308.696 449.16 307.316 448.36 305.536 448.36C303.536 448.36 301.976 449.62 301.976 451.28C301.976 453.1 303.516 453.7 305.236 454.06C306.716 454.38 307.816 454.56 307.816 455.38C307.816 456.16 307.176 456.64 306.116 456.64C305.116 456.64 304.136 456.22 303.556 455.38L301.856 456.28C302.716 457.48 304.216 458.26 306.036 458.26ZM317.954 458H319.634V456.28H318.514C317.914 456.28 317.674 456 317.674 455.4V450.24H319.714V448.56H317.674V445.54L315.774 446.72V448.56H314.274V450.24H315.774V455.64C315.794 457.14 316.234 457.92 317.954 458ZM324.975 458.16C327.755 458.16 329.735 456.14 329.735 453.3C329.735 450.42 327.795 448.4 325.015 448.4C322.235 448.4 320.275 450.42 320.275 453.3C320.275 456.18 322.195 458.16 324.975 458.16ZM324.975 456.5C323.295 456.5 322.255 455.3 322.255 453.36V453.28C322.255 451.3 323.335 450.06 325.015 450.06C326.695 450.06 327.755 451.3 327.755 453.28V453.36C327.755 455.28 326.675 456.5 324.975 456.5ZM334.984 458.2C336.304 458.2 337.384 457.62 338.044 456.62V458H339.964V444.52H338.044V449.98C337.364 448.98 336.304 448.36 335.004 448.36C332.544 448.36 330.744 450.32 330.744 453.32C330.744 456.38 332.564 458.2 334.984 458.2ZM335.484 456.52C333.864 456.52 332.804 455.42 332.804 453.4V453.26C332.804 451.22 333.884 450.04 335.484 450.04C337.144 450.04 338.144 451.3 338.144 453.16V453.32C338.144 455.2 337.104 456.52 335.484 456.52ZM344.767 458.24C346.127 458.24 347.307 457.7 347.947 456.58V458H349.847L349.827 456.54V451.88C349.827 449.48 348.387 448.4 345.967 448.4C343.467 448.4 341.787 449.68 341.727 451.8H343.707V451.68C343.787 450.62 344.547 449.98 345.947 449.98C347.387 449.98 347.967 450.58 347.967 451.36V451.5C347.767 452.02 346.787 452.12 345.187 452.46C343.087 452.92 341.507 453.4 341.507 455.52C341.507 457.14 342.747 458.24 344.767 458.24ZM345.127 456.74C344.087 456.74 343.507 456.22 343.507 455.44C343.507 454.44 344.387 454.1 345.467 453.82C346.387 453.6 347.387 453.44 347.967 453.04V454.2C347.807 456.04 346.507 456.74 345.127 456.74ZM350.802 461.8H351.802C354.062 461.8 354.882 460.92 355.742 458.68L359.362 448.56H357.282L354.982 455.6L352.462 448.56H350.402L354.042 457.82C353.302 459.74 353.002 460.02 351.702 460.02H350.802V461.8Z" fill="black"/>
<path d="M227.012 458.3C231.252 458.3 233.652 455.7 233.652 451.26C233.652 446.8 231.332 444.42 227.172 444.42C222.892 444.42 220.412 447.06 220.412 451.46C220.412 455.9 222.792 458.3 227.012 458.3ZM227.092 454.98C226.152 454.98 225.832 454.62 225.832 452.92V449.78C225.832 448.08 226.152 447.72 227.092 447.72C228.012 447.72 228.332 448.1 228.332 449.78V452.92C228.332 454.6 228.012 454.98 227.092 454.98Z" fill="#E51F2F"/>
<g clip-path="url(#clip1_707_3101)">
<path opacity="0.2" d="M607.217 366.897V347.729H613.863V366.563C613.863 371.42 615.98 373.978 620.287 373.978C625.486 373.978 627.899 369.492 627.899 362.856V347.729H634.434V379.243H627.899V373.83C627.139 375.651 625.829 377.19 624.152 378.233C622.475 379.276 620.514 379.772 618.542 379.651C611.45 379.651 607.217 374.905 607.217 366.897Z" fill="black"/>
<path opacity="0.2" d="M641.378 347.729H647.95V353.698C648.627 351.695 649.939 349.967 651.688 348.776C653.437 347.585 655.527 346.996 657.642 347.099C664.437 347.099 668.596 351.696 668.596 360.112V379.28H661.838V360.409C661.838 355.478 659.758 352.994 655.488 352.994C650.587 352.994 647.802 357.035 647.802 364.116V379.206H641.378V347.729Z" fill="black"/>
<path d="M675.02 347.729H681.406V352.4C682.513 350.734 684.021 349.372 685.792 348.439C687.563 347.506 689.541 347.033 691.543 347.062C699.638 347.062 705.728 353.216 705.728 363.264C705.728 373.422 699.638 379.836 691.469 379.836C689.483 379.871 687.52 379.411 685.756 378.499C683.993 377.586 682.485 376.249 681.369 374.609V391.589H675.02V347.729ZM698.97 363.56V363.078C698.97 356.33 695.442 352.66 690.021 352.66C684.6 352.66 681.109 357.072 681.109 363.338V363.894C681.109 370.085 684.451 374.312 690.021 374.312C695.591 374.312 698.97 370.345 698.97 363.56Z" fill="black"/>
<path d="M710.963 334.233H717.535V379.243H710.963V334.233Z" fill="black"/>
<path d="M723.996 366.897V347.729H730.606V366.563C730.606 371.42 732.759 373.978 737.029 373.978C742.265 373.978 744.456 369.492 744.456 362.856V347.729H751.028V379.243H744.641V373.83C743.89 375.657 742.583 377.203 740.903 378.248C739.224 379.292 737.258 379.783 735.284 379.651C728.192 379.651 723.996 374.905 723.996 366.897Z" fill="black"/>
<path d="M755.484 385.917C755.587 384.296 756.203 382.751 757.245 381.504C758.286 380.257 759.699 379.374 761.277 378.983C759.912 378.801 758.652 378.157 757.706 377.158C756.76 376.159 756.185 374.867 756.078 373.496C756.078 370.753 758.158 368.677 761.76 367.898C760.359 366.858 759.223 365.505 758.443 363.946C757.662 362.388 757.259 360.668 757.267 358.926C757.327 357.261 757.723 355.625 758.433 354.118C759.143 352.61 760.151 351.262 761.396 350.153C762.642 349.045 764.099 348.199 765.68 347.668C767.261 347.137 768.934 346.93 770.597 347.062C772.753 346.948 774.903 347.378 776.85 348.311C778.796 349.244 780.477 350.65 781.737 352.4C782.177 351.059 783.025 349.888 784.163 349.051C785.301 348.213 786.673 347.751 788.086 347.729V354.551C787.233 354.188 786.289 354.092 785.381 354.278C784.472 354.463 783.641 354.921 782.999 355.589C783.31 356.662 783.472 357.772 783.482 358.889C783.482 366.007 778.209 370.641 770.189 370.641C768.754 370.643 767.327 370.431 765.956 370.011H765.51C763.096 370.011 761.797 370.975 761.797 372.31C761.797 373.645 763.728 374.831 766.661 374.831H773.233C783.259 374.831 788.346 378.094 788.346 384.508C788.346 390.922 781.997 395 771.414 395C760.831 395 755.484 391.775 755.484 385.917ZM782.479 384.99C782.479 381.838 779.657 380.429 773.048 380.429H769.112C764.842 380.429 761.24 382.246 761.24 385.36C761.24 388.475 764.953 390.032 771.637 390.032C778.32 390.032 782.479 388.104 782.479 384.99V384.99ZM777.652 359.037V358.777C777.522 356.973 776.712 355.286 775.386 354.054C774.06 352.821 772.316 352.137 770.504 352.137C768.693 352.137 766.949 352.821 765.622 354.054C764.296 355.286 763.487 356.973 763.356 358.777V359.037C763.487 360.841 764.296 362.529 765.622 363.761C766.949 364.993 768.693 365.678 770.504 365.678C772.316 365.678 774.06 364.993 775.386 363.761C776.712 362.529 777.522 360.841 777.652 359.037V359.037Z" fill="black"/>
<path d="M696.482 302.571C747.504 302.571 788.866 261.272 788.866 210.327C788.866 159.382 747.504 118.083 696.482 118.083C645.459 118.083 604.098 159.382 604.098 210.327C604.098 261.272 645.459 302.571 696.482 302.571Z" fill="#EA5541"/>
<path fill-rule="evenodd" clip-rule="evenodd" d="M663.026 124.312C670.743 126.319 677.871 130.132 683.82 135.435L696.63 148.189C698.202 149.772 699.083 151.911 699.083 154.139C699.083 156.368 698.202 158.507 696.63 160.09L646.205 210.439C645.425 211.224 644.497 211.848 643.474 212.274C642.451 212.699 641.354 212.919 640.246 212.919C639.137 212.919 638.04 212.699 637.017 212.274C635.994 211.848 635.066 211.224 634.286 210.439L621.513 197.685C616.203 191.773 612.383 184.68 610.373 176.996" fill="black"/>
<path d="M735.247 299.345C724.182 298.246 713.767 293.618 705.542 286.147L692.731 273.356C690.538 271.153 689.308 268.174 689.308 265.069C689.308 261.964 690.538 258.985 692.731 256.783L743.008 206.434C745.213 204.245 748.197 203.016 751.307 203.016C754.417 203.016 757.4 204.245 759.606 206.434L772.379 219.225C780.412 228.001 785.115 239.308 785.672 251.184H779.026C778.454 241.075 774.446 231.462 767.663 223.934L754.927 211.18C754.448 210.677 753.872 210.277 753.234 210.004C752.596 209.73 751.908 209.589 751.214 209.589C750.519 209.589 749.832 209.73 749.194 210.004C748.555 210.277 747.979 210.677 747.501 211.18L697.261 261.454C696.763 261.935 696.366 262.511 696.095 263.148C695.824 263.785 695.685 264.47 695.685 265.162C695.685 265.854 695.824 266.539 696.095 267.176C696.366 267.813 696.763 268.389 697.261 268.869L710.109 281.438C717.232 287.802 726.185 291.759 735.693 292.746L735.247 299.345Z" fill="black"/>
<path d="M696.371 253.423L679.725 236.802C679.286 236.364 679.039 235.77 679.039 235.15C679.039 234.531 679.286 233.937 679.725 233.498L685.974 227.259C686.417 226.844 687.004 226.617 687.612 226.627C688.22 226.637 688.8 226.882 689.229 227.311L705.876 243.933L696.371 253.423Z" fill="black"/>
<path d="M730.061 219.795L713.44 203.2C713.223 202.984 713.051 202.726 712.933 202.443C712.816 202.159 712.755 201.856 712.755 201.549C712.755 201.242 712.816 200.938 712.933 200.655C713.051 200.372 713.223 200.114 713.44 199.897L719.689 193.658C719.907 193.441 720.164 193.269 720.448 193.151C720.732 193.034 721.036 192.974 721.343 192.974C721.651 192.974 721.955 193.034 722.239 193.151C722.523 193.269 722.78 193.441 722.998 193.658L739.618 210.253L730.061 219.795Z" fill="black"/>
<path d="M696.481 311.691C676.403 311.691 656.775 305.747 640.081 294.609C623.386 283.47 610.374 267.64 602.691 249.118C595.007 230.596 592.996 210.215 596.914 190.552C600.831 170.889 610.499 152.828 624.697 138.652C638.895 124.476 656.984 114.822 676.676 110.911C696.369 106.999 716.781 109.007 735.331 116.679C753.881 124.351 769.736 137.343 780.891 154.012C792.046 170.682 798 190.279 798 210.327C797.971 237.202 787.265 262.967 768.233 281.97C749.201 300.973 723.397 311.662 696.481 311.691V311.691ZM696.481 127.167C680.009 127.167 663.906 132.044 650.21 141.182C636.513 150.32 625.838 163.308 619.535 178.503C613.231 193.699 611.581 210.419 614.795 226.551C618.009 242.682 625.941 257.5 637.589 269.13C649.237 280.761 664.077 288.681 680.233 291.89C696.389 295.098 713.135 293.451 728.354 287.157C743.573 280.863 756.58 270.204 765.732 256.529C774.884 242.853 779.768 226.775 779.768 210.327C779.749 188.278 770.967 167.137 755.352 151.546C739.737 135.954 718.564 127.187 696.481 127.167V127.167Z" fill="black"/>
</g>
<path d="M578.501 458H580.501V451.92L585.301 444.72H583.061L579.521 450.12L576.021 444.72H573.741L578.501 451.88V458ZM588.096 458.16C590.876 458.16 592.856 456.14 592.856 453.3C592.856 450.42 590.916 448.4 588.136 448.4C585.356 448.4 583.396 450.42 583.396 453.3C583.396 456.18 585.316 458.16 588.096 458.16ZM588.096 456.5C586.416 456.5 585.376 455.3 585.376 453.36V453.28C585.376 451.3 586.456 450.06 588.136 450.06C589.816 450.06 590.876 451.3 590.876 453.28V453.36C590.876 455.28 589.796 456.5 588.096 456.5ZM597.606 458.16C598.966 458.16 599.886 457.54 600.406 456.38V458H602.366V448.56H600.406V453.08C600.406 455.12 599.686 456.46 598.126 456.46C596.846 456.46 596.206 455.66 596.206 454.2V448.56H594.226V454.3C594.226 456.7 595.486 458.16 597.606 458.16ZM612.411 458.16C614.711 458.16 616.131 456.94 616.751 455.02L614.871 454.44C614.551 455.72 613.891 456.5 612.371 456.5C610.731 456.5 609.771 455.18 609.771 453.32V453.24C609.771 451.36 610.791 450.06 612.431 450.06C613.791 450.06 614.471 450.82 614.791 452.02L616.671 451.44C616.091 449.6 614.691 448.4 612.471 448.4C609.711 448.4 607.791 450.44 607.791 453.26C607.791 456.14 609.591 458.16 612.411 458.16ZM622.159 458.16C624.939 458.16 626.919 456.14 626.919 453.3C626.919 450.42 624.979 448.4 622.199 448.4C619.419 448.4 617.459 450.42 617.459 453.3C617.459 456.18 619.379 458.16 622.159 458.16ZM622.159 456.5C620.479 456.5 619.439 455.3 619.439 453.36V453.28C619.439 451.3 620.519 450.06 622.199 450.06C623.879 450.06 624.939 451.3 624.939 453.28V453.36C624.939 455.28 623.859 456.5 622.159 456.5ZM628.468 458H630.428V452.72C630.428 451.02 631.268 450.1 632.408 450.1C633.528 450.1 634.128 450.78 634.128 452.18V458H636.108V452.72C636.108 451.08 636.828 450.1 638.088 450.1C639.208 450.1 639.808 450.78 639.808 452.18V458H641.788V452.08C641.788 449.74 640.648 448.36 638.848 448.36C637.248 448.36 636.248 449.18 635.788 450.42C635.348 448.92 634.288 448.36 633.188 448.36C631.828 448.36 630.908 449.04 630.428 450.22V448.56H628.468V458ZM643.702 461.72H645.642V456.64C646.302 457.6 647.362 458.2 648.662 458.2C651.102 458.2 652.922 456.28 652.922 453.24V453.22C652.922 450.2 651.102 448.36 648.682 448.36C647.362 448.36 646.282 448.96 645.622 449.96V448.56H643.702V461.72ZM648.182 456.52C646.522 456.52 645.522 455.26 645.522 453.4V453.24C645.522 451.36 646.542 450.04 648.182 450.04C649.802 450.04 650.862 451.14 650.862 453.16V453.3C650.862 455.34 649.782 456.52 648.182 456.52ZM654.464 458H656.444V444.52H654.464V458ZM662.686 458.16C665.106 458.16 666.446 457 667.086 455.54L665.346 454.86C664.986 455.78 664.286 456.56 662.686 456.56C661.086 456.56 660.066 455.58 659.946 453.96H667.046V453.24C667.046 450.26 665.386 448.4 662.606 448.4C659.926 448.4 657.986 450.42 657.986 453.34C657.986 456.24 659.786 458.16 662.686 458.16ZM659.906 452.48C660.106 450.94 661.146 450 662.566 450C664.046 450 664.946 450.86 665.026 452.48H659.906ZM671.329 458H673.009V456.28H671.889C671.289 456.28 671.049 456 671.049 455.4V450.24H673.089V448.56H671.049V445.54L669.149 446.72V448.56H667.649V450.24H669.149V455.64C669.169 457.14 669.609 457.92 671.329 458ZM678.37 458.16C680.79 458.16 682.13 457 682.77 455.54L681.03 454.86C680.67 455.78 679.97 456.56 678.37 456.56C676.77 456.56 675.75 455.58 675.63 453.96H682.73V453.24C682.73 450.26 681.07 448.4 678.29 448.4C675.61 448.4 673.67 450.42 673.67 453.34C673.67 456.24 675.47 458.16 678.37 458.16ZM675.59 452.48C675.79 450.94 676.83 450 678.25 450C679.73 450 680.63 450.86 680.71 452.48H675.59ZM688.008 458.2C689.328 458.2 690.408 457.62 691.068 456.62V458H692.988V444.52H691.068V449.98C690.388 448.98 689.328 448.36 688.028 448.36C685.568 448.36 683.768 450.32 683.768 453.32C683.768 456.38 685.588 458.2 688.008 458.2ZM688.508 456.52C686.888 456.52 685.828 455.42 685.828 453.4V453.26C685.828 451.22 686.908 450.04 688.508 450.04C690.168 450.04 691.168 451.3 691.168 453.16V453.32C691.168 455.2 690.128 456.52 688.508 456.52ZM715.818 458.24C717.178 458.24 718.358 457.7 718.998 456.58V458H720.898L720.878 456.54V451.88C720.878 449.48 719.438 448.4 717.018 448.4C714.518 448.4 712.838 449.68 712.778 451.8H714.758V451.68C714.838 450.62 715.598 449.98 716.998 449.98C718.438 449.98 719.018 450.58 719.018 451.36V451.5C718.818 452.02 717.838 452.12 716.238 452.46C714.138 452.92 712.558 453.4 712.558 455.52C712.558 457.14 713.798 458.24 715.818 458.24ZM716.178 456.74C715.138 456.74 714.558 456.22 714.558 455.44C714.558 454.44 715.438 454.1 716.518 453.82C717.438 453.6 718.438 453.44 719.018 453.04V454.2C718.858 456.04 717.558 456.74 716.178 456.74ZM726.923 458.16C729.223 458.16 730.643 456.94 731.263 455.02L729.383 454.44C729.063 455.72 728.403 456.5 726.883 456.5C725.243 456.5 724.283 455.18 724.283 453.32V453.24C724.283 451.36 725.303 450.06 726.943 450.06C728.303 450.06 728.983 450.82 729.303 452.02L731.183 451.44C730.603 449.6 729.203 448.4 726.983 448.4C724.223 448.4 722.303 450.44 722.303 453.26C722.303 456.14 724.103 458.16 726.923 458.16ZM735.45 458H737.13V456.28H736.01C735.41 456.28 735.17 456 735.17 455.4V450.24H737.21V448.56H735.17V445.54L733.27 446.72V448.56H731.77V450.24H733.27V455.64C733.29 457.14 733.73 457.92 735.45 458ZM738.701 447.04H740.821V444.96H738.701V447.04ZM738.761 458H740.741V448.56H738.761V458ZM745.466 458.02H747.286L750.806 448.56H748.746L746.366 455.66L743.866 448.56H741.826L745.466 458.02ZM751.787 447.04H753.907V444.96H751.787V447.04ZM751.847 458H753.827V448.56H751.847V458ZM758.849 458H760.529V456.28H759.409C758.809 456.28 758.569 456 758.569 455.4V450.24H760.609V448.56H758.569V445.54L756.669 446.72V448.56H755.169V450.24H756.669V455.64C756.689 457.14 757.129 457.92 758.849 458ZM761.599 461.8H762.599C764.859 461.8 765.679 460.92 766.539 458.68L770.159 448.56H768.079L765.779 455.6L763.259 448.56H761.199L764.839 457.82C764.099 459.74 763.799 460.02 762.499 460.02H761.599V461.8ZM777.989 458H779.669V456.28H778.549C777.949 456.28 777.709 456 777.709 455.4V450.24H779.749V448.56H777.709V445.54L775.809 446.72V448.56H774.309V450.24H775.809V455.64C775.829 457.14 776.269 457.92 777.989 458ZM785.011 458.16C787.791 458.16 789.771 456.14 789.771 453.3C789.771 450.42 787.831 448.4 785.051 448.4C782.271 448.4 780.311 450.42 780.311 453.3C780.311 456.18 782.231 458.16 785.011 458.16ZM785.011 456.5C783.331 456.5 782.291 455.3 782.291 453.36V453.28C782.291 451.3 783.371 450.06 785.051 450.06C786.731 450.06 787.791 451.3 787.791 453.28V453.36C787.791 455.28 786.711 456.5 785.011 456.5ZM795.019 458.2C796.339 458.2 797.419 457.62 798.079 456.62V458H799.999V444.52H798.079V449.98C797.399 448.98 796.339 448.36 795.039 448.36C792.579 448.36 790.779 450.32 790.779 453.32C790.779 456.38 792.599 458.2 795.019 458.2ZM795.519 456.52C793.899 456.52 792.839 455.42 792.839 453.4V453.26C792.839 451.22 793.919 450.04 795.519 450.04C797.179 450.04 798.179 451.3 798.179 453.16V453.32C798.179 455.2 797.139 456.52 795.519 456.52ZM804.802 458.24C806.162 458.24 807.342 457.7 807.982 456.58V458H809.882L809.862 456.54V451.88C809.862 449.48 808.422 448.4 806.002 448.4C803.502 448.4 801.822 449.68 801.762 451.8H803.742V451.68C803.822 450.62 804.582 449.98 805.982 449.98C807.422 449.98 808.002 450.58 808.002 451.36V451.5C807.802 452.02 806.822 452.12 805.222 452.46C803.122 452.92 801.542 453.4 801.542 455.52C801.542 457.14 802.782 458.24 804.802 458.24ZM805.162 456.74C804.122 456.74 803.542 456.22 803.542 455.44C803.542 454.44 804.422 454.1 805.502 453.82C806.422 453.6 807.422 453.44 808.002 453.04V454.2C807.842 456.04 806.542 456.74 805.162 456.74ZM810.837 461.8H811.837C814.097 461.8 814.917 460.92 815.777 458.68L819.397 448.56H817.317L815.017 455.6L812.497 448.56H810.437L814.077 457.82C813.337 459.74 813.037 460.02 811.737 460.02H810.837V461.8Z" fill="black"/>
<path d="M702.156 458H707.056V444.72H702.936C702.616 446.24 700.876 448.12 698.436 448.9V452.78C699.716 452.3 700.996 451.12 702.156 449.84V458Z" fill="#EA5541"/>
<path d="M1039.46 458H1041.46V451.92L1046.26 444.72H1044.02L1040.48 450.12L1036.98 444.72H1034.7L1039.46 451.88V458ZM1049.06 458.16C1051.84 458.16 1053.82 456.14 1053.82 453.3C1053.82 450.42 1051.88 448.4 1049.1 448.4C1046.32 448.4 1044.36 450.42 1044.36 453.3C1044.36 456.18 1046.28 458.16 1049.06 458.16ZM1049.06 456.5C1047.38 456.5 1046.34 455.3 1046.34 453.36V453.28C1046.34 451.3 1047.42 450.06 1049.1 450.06C1050.78 450.06 1051.84 451.3 1051.84 453.28V453.36C1051.84 455.28 1050.76 456.5 1049.06 456.5ZM1058.57 458.16C1059.93 458.16 1060.85 457.54 1061.37 456.38V458H1063.33V448.56H1061.37V453.08C1061.37 455.12 1060.65 456.46 1059.09 456.46C1057.81 456.46 1057.17 455.66 1057.17 454.2V448.56H1055.19V454.3C1055.19 456.7 1056.45 458.16 1058.57 458.16ZM1073.37 458.16C1075.67 458.16 1077.09 456.94 1077.71 455.02L1075.83 454.44C1075.51 455.72 1074.85 456.5 1073.33 456.5C1071.69 456.5 1070.73 455.18 1070.73 453.32V453.24C1070.73 451.36 1071.75 450.06 1073.39 450.06C1074.75 450.06 1075.43 450.82 1075.75 452.02L1077.63 451.44C1077.05 449.6 1075.65 448.4 1073.43 448.4C1070.67 448.4 1068.75 450.44 1068.75 453.26C1068.75 456.14 1070.55 458.16 1073.37 458.16ZM1083.12 458.16C1085.9 458.16 1087.88 456.14 1087.88 453.3C1087.88 450.42 1085.94 448.4 1083.16 448.4C1080.38 448.4 1078.42 450.42 1078.42 453.3C1078.42 456.18 1080.34 458.16 1083.12 458.16ZM1083.12 456.5C1081.44 456.5 1080.4 455.3 1080.4 453.36V453.28C1080.4 451.3 1081.48 450.06 1083.16 450.06C1084.84 450.06 1085.9 451.3 1085.9 453.28V453.36C1085.9 455.28 1084.82 456.5 1083.12 456.5ZM1089.43 458H1091.39V452.72C1091.39 451.02 1092.23 450.1 1093.37 450.1C1094.49 450.1 1095.09 450.78 1095.09 452.18V458H1097.07V452.72C1097.07 451.08 1097.79 450.1 1099.05 450.1C1100.17 450.1 1100.77 450.78 1100.77 452.18V458H1102.75V452.08C1102.75 449.74 1101.61 448.36 1099.81 448.36C1098.21 448.36 1097.21 449.18 1096.75 450.42C1096.31 448.92 1095.25 448.36 1094.15 448.36C1092.79 448.36 1091.87 449.04 1091.39 450.22V448.56H1089.43V458ZM1104.67 461.72H1106.61V456.64C1107.27 457.6 1108.33 458.2 1109.63 458.2C1112.07 458.2 1113.89 456.28 1113.89 453.24V453.22C1113.89 450.2 1112.07 448.36 1109.65 448.36C1108.33 448.36 1107.25 448.96 1106.59 449.96V448.56H1104.67V461.72ZM1109.15 456.52C1107.49 456.52 1106.49 455.26 1106.49 453.4V453.24C1106.49 451.36 1107.51 450.04 1109.15 450.04C1110.77 450.04 1111.83 451.14 1111.83 453.16V453.3C1111.83 455.34 1110.75 456.52 1109.15 456.52ZM1115.43 458H1117.41V444.52H1115.43V458ZM1123.65 458.16C1126.07 458.16 1127.41 457 1128.05 455.54L1126.31 454.86C1125.95 455.78 1125.25 456.56 1123.65 456.56C1122.05 456.56 1121.03 455.58 1120.91 453.96H1128.01V453.24C1128.01 450.26 1126.35 448.4 1123.57 448.4C1120.89 448.4 1118.95 450.42 1118.95 453.34C1118.95 456.24 1120.75 458.16 1123.65 458.16ZM1120.87 452.48C1121.07 450.94 1122.11 450 1123.53 450C1125.01 450 1125.91 450.86 1125.99 452.48H1120.87ZM1132.29 458H1133.97V456.28H1132.85C1132.25 456.28 1132.01 456 1132.01 455.4V450.24H1134.05V448.56H1132.01V445.54L1130.11 446.72V448.56H1128.61V450.24H1130.11V455.64C1130.13 457.14 1130.57 457.92 1132.29 458ZM1139.33 458.16C1141.75 458.16 1143.09 457 1143.73 455.54L1141.99 454.86C1141.63 455.78 1140.93 456.56 1139.33 456.56C1137.73 456.56 1136.71 455.58 1136.59 453.96H1143.69V453.24C1143.69 450.26 1142.03 448.4 1139.25 448.4C1136.57 448.4 1134.63 450.42 1134.63 453.34C1134.63 456.24 1136.43 458.16 1139.33 458.16ZM1136.55 452.48C1136.75 450.94 1137.79 450 1139.21 450C1140.69 450 1141.59 450.86 1141.67 452.48H1136.55ZM1148.97 458.2C1150.29 458.2 1151.37 457.62 1152.03 456.62V458H1153.95V444.52H1152.03V449.98C1151.35 448.98 1150.29 448.36 1148.99 448.36C1146.53 448.36 1144.73 450.32 1144.73 453.32C1144.73 456.38 1146.55 458.2 1148.97 458.2ZM1149.47 456.52C1147.85 456.52 1146.79 455.42 1146.79 453.4V453.26C1146.79 451.22 1147.87 450.04 1149.47 450.04C1151.13 450.04 1152.13 451.3 1152.13 453.16V453.32C1152.13 455.2 1151.09 456.52 1149.47 456.52ZM1179.09 458.24C1180.45 458.24 1181.63 457.7 1182.27 456.58V458H1184.17L1184.15 456.54V451.88C1184.15 449.48 1182.71 448.4 1180.29 448.4C1177.79 448.4 1176.11 449.68 1176.05 451.8H1178.03V451.68C1178.11 450.62 1178.87 449.98 1180.27 449.98C1181.71 449.98 1182.29 450.58 1182.29 451.36V451.5C1182.09 452.02 1181.11 452.12 1179.51 452.46C1177.41 452.92 1175.83 453.4 1175.83 455.52C1175.83 457.14 1177.07 458.24 1179.09 458.24ZM1179.45 456.74C1178.41 456.74 1177.83 456.22 1177.83 455.44C1177.83 454.44 1178.71 454.1 1179.79 453.82C1180.71 453.6 1181.71 453.44 1182.29 453.04V454.2C1182.13 456.04 1180.83 456.74 1179.45 456.74ZM1190.19 458.16C1192.49 458.16 1193.91 456.94 1194.53 455.02L1192.65 454.44C1192.33 455.72 1191.67 456.5 1190.15 456.5C1188.51 456.5 1187.55 455.18 1187.55 453.32V453.24C1187.55 451.36 1188.57 450.06 1190.21 450.06C1191.57 450.06 1192.25 450.82 1192.57 452.02L1194.45 451.44C1193.87 449.6 1192.47 448.4 1190.25 448.4C1187.49 448.4 1185.57 450.44 1185.57 453.26C1185.57 456.14 1187.37 458.16 1190.19 458.16ZM1198.72 458H1200.4V456.28H1199.28C1198.68 456.28 1198.44 456 1198.44 455.4V450.24H1200.48V448.56H1198.44V445.54L1196.54 446.72V448.56H1195.04V450.24H1196.54V455.64C1196.56 457.14 1197 457.92 1198.72 458ZM1201.97 447.04H1204.09V444.96H1201.97V447.04ZM1202.03 458H1204.01V448.56H1202.03V458ZM1208.73 458.02H1210.55L1214.07 448.56H1212.01L1209.63 455.66L1207.13 448.56H1205.09L1208.73 458.02ZM1215.05 447.04H1217.17V444.96H1215.05V447.04ZM1215.11 458H1217.09V448.56H1215.11V458ZM1222.12 458H1223.8V456.28H1222.68C1222.08 456.28 1221.84 456 1221.84 455.4V450.24H1223.88V448.56H1221.84V445.54L1219.94 446.72V448.56H1218.44V450.24H1219.94V455.64C1219.96 457.14 1220.4 457.92 1222.12 458ZM1225.37 447.04H1227.49V444.96H1225.37V447.04ZM1225.43 458H1227.41V448.56H1225.43V458ZM1233.67 458.16C1236.09 458.16 1237.43 457 1238.07 455.54L1236.33 454.86C1235.97 455.78 1235.27 456.56 1233.67 456.56C1232.07 456.56 1231.05 455.58 1230.93 453.96H1238.03V453.24C1238.03 450.26 1236.37 448.4 1233.59 448.4C1230.91 448.4 1228.97 450.42 1228.97 453.34C1228.97 456.24 1230.77 458.16 1233.67 458.16ZM1230.89 452.48C1231.09 450.94 1232.13 450 1233.55 450C1235.03 450 1235.93 450.86 1236.01 452.48H1230.89ZM1243.11 458.26C1245.25 458.26 1246.79 456.98 1246.79 455.24C1246.79 453.38 1245.01 452.76 1243.29 452.42C1241.57 452.08 1240.93 451.94 1240.93 451.16C1240.93 450.44 1241.59 449.96 1242.61 449.96C1243.59 449.96 1244.45 450.4 1244.99 451.22L1246.69 450.38C1245.77 449.16 1244.39 448.36 1242.61 448.36C1240.61 448.36 1239.05 449.62 1239.05 451.28C1239.05 453.1 1240.59 453.7 1242.31 454.06C1243.79 454.38 1244.89 454.56 1244.89 455.38C1244.89 456.16 1244.25 456.64 1243.19 456.64C1242.19 456.64 1241.21 456.22 1240.63 455.38L1238.93 456.28C1239.79 457.48 1241.29 458.26 1243.11 458.26ZM1255.03 458H1256.71V456.28H1255.59C1254.99 456.28 1254.75 456 1254.75 455.4V450.24H1256.79V448.56H1254.75V445.54L1252.85 446.72V448.56H1251.35V450.24H1252.85V455.64C1252.87 457.14 1253.31 457.92 1255.03 458ZM1262.05 458.16C1264.83 458.16 1266.81 456.14 1266.81 453.3C1266.81 450.42 1264.87 448.4 1262.09 448.4C1259.31 448.4 1257.35 450.42 1257.35 453.3C1257.35 456.18 1259.27 458.16 1262.05 458.16ZM1262.05 456.5C1260.37 456.5 1259.33 455.3 1259.33 453.36V453.28C1259.33 451.3 1260.41 450.06 1262.09 450.06C1263.77 450.06 1264.83 451.3 1264.83 453.28V453.36C1264.83 455.28 1263.75 456.5 1262.05 456.5ZM1272.06 458.2C1273.38 458.2 1274.46 457.62 1275.12 456.62V458H1277.04V444.52H1275.12V449.98C1274.44 448.98 1273.38 448.36 1272.08 448.36C1269.62 448.36 1267.82 450.32 1267.82 453.32C1267.82 456.38 1269.64 458.2 1272.06 458.2ZM1272.56 456.52C1270.94 456.52 1269.88 455.42 1269.88 453.4V453.26C1269.88 451.22 1270.96 450.04 1272.56 450.04C1274.22 450.04 1275.22 451.3 1275.22 453.16V453.32C1275.22 455.2 1274.18 456.52 1272.56 456.52ZM1281.84 458.24C1283.2 458.24 1284.38 457.7 1285.02 456.58V458H1286.92L1286.9 456.54V451.88C1286.9 449.48 1285.46 448.4 1283.04 448.4C1280.54 448.4 1278.86 449.68 1278.8 451.8H1280.78V451.68C1280.86 450.62 1281.62 449.98 1283.02 449.98C1284.46 449.98 1285.04 450.58 1285.04 451.36V451.5C1284.84 452.02 1283.86 452.12 1282.26 452.46C1280.16 452.92 1278.58 453.4 1278.58 455.52C1278.58 457.14 1279.82 458.24 1281.84 458.24ZM1282.2 456.74C1281.16 456.74 1280.58 456.22 1280.58 455.44C1280.58 454.44 1281.46 454.1 1282.54 453.82C1283.46 453.6 1284.46 453.44 1285.04 453.04V454.2C1284.88 456.04 1283.58 456.74 1282.2 456.74ZM1287.87 461.8H1288.87C1291.13 461.8 1291.95 460.92 1292.81 458.68L1296.43 448.56H1294.35L1292.05 455.6L1289.53 448.56H1287.47L1291.11 457.82C1290.37 459.74 1290.07 460.02 1288.77 460.02H1287.87V461.8Z" fill="black"/>
<path d="M1159.36 458H1170.52V454.5H1164.6C1166 453.08 1170.72 452.94 1170.72 448.76C1170.72 445.96 1168.7 444.42 1165.36 444.42C1162.54 444.42 1160.52 445.64 1159 447.58L1161.94 450.08C1162.78 449.02 1163.86 448.22 1164.84 448.22C1165.54 448.22 1165.94 448.62 1165.94 449.02C1165.94 450.78 1159.36 451.6 1159.36 457.44V458Z" fill="#ED6B19"/>
<path opacity="0.4" d="M1077.7 366.934V347.766H1084.35V366.6C1084.35 371.457 1086.47 374.015 1090.74 374.015C1095.97 374.015 1098.38 369.529 1098.38 362.893V347.766H1104.88V379.28H1098.38V373.867C1097.62 375.688 1096.31 377.227 1094.64 378.27C1092.96 379.313 1091 379.809 1089.03 379.688C1081.94 379.688 1077.7 374.942 1077.7 366.934Z" fill="black"/>
<path opacity="0.4" d="M1111.86 347.766H1118.44V353.735C1119.11 351.732 1120.42 350.004 1122.17 348.813C1123.92 347.622 1126.01 347.033 1128.13 347.136C1134.92 347.136 1139.08 351.733 1139.08 360.149V379.317H1132.47V360.446C1132.47 355.515 1130.39 353.031 1126.12 353.031C1121.22 353.031 1118.44 357.072 1118.44 364.153V379.243H1111.86V347.766Z" fill="black"/>
<path d="M1145.47 347.766H1151.89V352.437C1153.01 350.755 1154.53 349.383 1156.33 348.449C1158.12 347.516 1160.12 347.051 1162.14 347.099C1170.23 347.099 1176.32 353.253 1176.32 363.301C1176.32 373.459 1170.23 379.873 1162.07 379.873C1160.08 379.908 1158.12 379.448 1156.35 378.536C1154.59 377.623 1153.08 376.286 1151.97 374.646V391.626H1145.47V347.766ZM1169.42 363.597V363.115C1169.42 356.367 1165.89 352.697 1160.47 352.697C1155.05 352.697 1151.56 357.109 1151.56 363.375V363.931C1151.56 370.122 1154.9 374.349 1160.47 374.349C1166.04 374.349 1169.42 370.382 1169.42 363.597Z" fill="black"/>
<path d="M1181.45 334.271H1188.06V379.28H1181.45V334.271Z" fill="black"/>
<path d="M1194.48 366.934V347.766H1201.09V366.6C1201.09 371.457 1203.24 374.015 1207.51 374.015C1212.71 374.015 1214.94 369.529 1214.94 362.893V347.766H1221.51V379.28H1215.13V373.867C1214.37 375.691 1213.06 377.233 1211.38 378.277C1209.71 379.321 1207.74 379.815 1205.77 379.688C1198.68 379.688 1194.48 374.942 1194.48 366.934Z" fill="black"/>
<path d="M1225.97 385.954C1226.07 384.333 1226.69 382.788 1227.73 381.541C1228.77 380.294 1230.18 379.411 1231.76 379.021C1230.4 378.838 1229.14 378.194 1228.19 377.195C1227.25 376.196 1226.67 374.904 1226.56 373.533C1226.56 370.79 1228.64 368.714 1232.25 367.935C1230.84 366.895 1229.71 365.542 1228.93 363.983C1228.15 362.425 1227.74 360.705 1227.75 358.963C1227.81 357.298 1228.21 355.663 1228.92 354.155C1229.63 352.647 1230.64 351.299 1231.88 350.19C1233.13 349.082 1234.58 348.236 1236.17 347.705C1237.75 347.174 1239.42 346.967 1241.08 347.099C1243.24 346.989 1245.39 347.42 1247.33 348.352C1249.28 349.285 1250.96 350.689 1252.22 352.437C1252.67 351.051 1253.56 349.846 1254.75 349.004C1255.94 348.162 1257.37 347.727 1258.83 347.766V354.588C1257.98 354.225 1257.03 354.129 1256.13 354.315C1255.22 354.5 1254.39 354.958 1253.74 355.626C1254.04 356.703 1254.2 357.81 1254.23 358.926C1254.23 366.044 1248.95 370.679 1240.93 370.679C1239.5 370.68 1238.07 370.468 1236.7 370.048H1236.26C1233.84 370.048 1232.54 371.012 1232.54 372.347C1232.54 373.682 1234.47 374.868 1237.41 374.868H1243.76C1253.78 374.868 1258.83 378.131 1258.83 384.545C1258.83 390.959 1252.48 395.037 1241.94 395.037C1231.39 395.037 1225.97 391.812 1225.97 385.954ZM1252.96 385.027C1252.96 381.875 1250.14 380.467 1243.53 380.467H1239.6C1235.33 380.467 1231.73 382.283 1231.73 385.398C1231.73 388.512 1235.44 390.069 1242.12 390.069C1248.81 390.069 1252.96 388.141 1252.96 385.027V385.027ZM1248.14 359.074V358.814C1248.01 357.01 1247.2 355.323 1245.87 354.091C1244.55 352.859 1242.8 352.174 1240.99 352.174C1239.18 352.174 1237.43 352.859 1236.11 354.091C1234.78 355.323 1233.97 357.01 1233.84 358.814V359.074C1233.97 360.878 1234.78 362.566 1236.11 363.798C1237.43 365.03 1239.18 365.715 1240.99 365.715C1242.8 365.715 1244.55 365.03 1245.87 363.798C1247.2 362.566 1248.01 360.878 1248.14 359.074V359.074Z" fill="black"/>
<path d="M1165.52 302.608C1216.54 302.608 1257.9 261.309 1257.9 210.364C1257.9 159.42 1216.54 118.121 1165.52 118.121C1114.5 118.121 1073.13 159.42 1073.13 210.364C1073.13 261.309 1114.5 302.608 1165.52 302.608Z" fill="#ED6B19"/>
<path d="M1165.52 311.729C1145.44 311.729 1125.81 305.784 1109.12 294.646C1092.42 283.508 1079.41 267.677 1071.73 249.155C1064.04 230.633 1062.03 210.252 1065.95 190.589C1069.87 170.926 1079.54 152.865 1093.73 138.689C1107.93 124.513 1126.02 114.859 1145.71 110.948C1165.41 107.037 1185.82 109.044 1204.37 116.716C1222.92 124.388 1238.77 137.38 1249.93 154.049C1261.08 170.719 1267.04 190.316 1267.04 210.364C1267.01 237.239 1256.3 263.004 1237.27 282.007C1218.24 301.01 1192.43 311.699 1165.52 311.729V311.729ZM1165.52 127.204C1149.05 127.204 1132.94 132.081 1119.25 141.219C1105.55 150.357 1094.88 163.345 1088.57 178.54C1082.27 193.736 1080.62 210.457 1083.83 226.588C1087.05 242.72 1094.98 257.537 1106.63 269.167C1118.27 280.798 1133.11 288.718 1149.27 291.927C1165.43 295.135 1182.17 293.489 1197.39 287.194C1212.61 280.9 1225.62 270.241 1234.77 256.566C1243.92 242.89 1248.81 226.812 1248.81 210.364C1248.79 188.315 1240 167.174 1224.39 151.583C1208.77 135.992 1187.6 127.224 1165.52 127.204V127.204Z" fill="black"/>
<path fill-rule="evenodd" clip-rule="evenodd" d="M1134.22 119.084C1137.13 120.755 1139.86 122.731 1142.35 124.979L1155.12 137.77C1155.91 138.549 1156.53 139.476 1156.96 140.498C1157.39 141.519 1157.61 142.615 1157.61 143.721C1157.61 144.828 1157.39 145.923 1156.96 146.944C1156.53 147.966 1155.91 148.893 1155.12 149.672L1104.88 199.983C1104.1 200.769 1103.17 201.393 1102.15 201.818C1101.13 202.244 1100.03 202.463 1098.92 202.463C1097.81 202.463 1096.72 202.244 1095.69 201.818C1094.67 201.393 1093.74 200.769 1092.96 199.983L1080 187.229C1078.66 185.771 1077.42 184.223 1076.29 182.595" fill="black"/>
<path d="M1196.82 304.795C1192.51 302.655 1188.52 299.922 1184.98 296.676L1172.17 283.885C1171.07 282.799 1170.2 281.508 1169.61 280.086C1169.02 278.664 1168.71 277.139 1168.71 275.598C1168.71 274.058 1169.02 272.533 1169.61 271.111C1170.2 269.689 1171.07 268.398 1172.17 267.312L1222.55 217.001C1223.64 215.908 1224.93 215.04 1226.36 214.448C1227.78 213.856 1229.31 213.552 1230.85 213.552C1232.39 213.552 1233.92 213.856 1235.35 214.448C1236.77 215.04 1238.06 215.908 1239.15 217.001L1251.92 229.755C1254.58 232.634 1256.89 235.82 1258.79 239.246L1253.04 242.509C1251.41 239.588 1249.46 236.863 1247.21 234.389L1234.47 221.672C1233.51 220.715 1232.21 220.177 1230.85 220.177C1229.49 220.177 1228.19 220.715 1227.23 221.672L1176.84 272.169C1175.88 273.128 1175.35 274.428 1175.35 275.784C1175.35 277.139 1175.88 278.439 1176.84 279.399L1189.62 292.153C1192.69 294.895 1196.11 297.226 1199.79 299.086L1196.82 304.795Z" fill="black"/>
<path d="M1175.98 263.955L1159.36 247.36C1158.92 246.922 1158.67 246.328 1158.67 245.708C1158.67 245.089 1158.92 244.495 1159.36 244.057L1165.61 237.817C1166.05 237.379 1166.64 237.133 1167.26 237.133C1167.88 237.133 1168.48 237.379 1168.92 237.817L1185.54 254.412L1175.98 263.955Z" fill="black"/>
<path d="M1209.63 230.327L1193.01 213.732C1192.57 213.294 1192.33 212.7 1192.33 212.081C1192.33 211.461 1192.57 210.867 1193.01 210.429L1199.26 204.19C1199.7 203.752 1200.3 203.506 1200.92 203.506C1201.54 203.506 1202.13 203.752 1202.57 204.19L1219.19 220.785L1209.63 230.327Z" fill="black"/>
<path d="M1165.52 311.729C1145.44 311.729 1125.81 305.784 1109.12 294.646C1092.42 283.508 1079.41 267.677 1071.73 249.155C1064.04 230.633 1062.03 210.252 1065.95 190.589C1069.87 170.926 1079.54 152.865 1093.73 138.689C1107.93 124.513 1126.02 114.859 1145.71 110.948C1165.41 107.037 1185.82 109.044 1204.37 116.716C1222.92 124.388 1238.77 137.38 1249.93 154.049C1261.08 170.719 1267.04 190.316 1267.04 210.364C1267.01 237.239 1256.3 263.004 1237.27 282.007C1218.24 301.01 1192.43 311.699 1165.52 311.729V311.729ZM1165.52 127.204C1149.05 127.204 1132.94 132.081 1119.25 141.219C1105.55 150.357 1094.88 163.345 1088.57 178.54C1082.27 193.736 1080.62 210.457 1083.83 226.588C1087.05 242.72 1094.98 257.537 1106.63 269.167C1118.27 280.798 1133.11 288.718 1149.27 291.927C1165.43 295.135 1182.17 293.489 1197.39 287.194C1212.61 280.9 1225.62 270.241 1234.77 256.566C1243.92 242.89 1248.81 226.812 1248.81 210.364C1248.79 188.315 1240 167.174 1224.39 151.583C1208.77 135.992 1187.6 127.224 1165.52 127.204V127.204Z" fill="black"/>
<path d="M101.005 898H103.005V891.92L107.805 884.72H105.565L102.025 890.12L98.5254 884.72H96.2454L101.005 891.88V898ZM110.6 898.16C113.38 898.16 115.36 896.14 115.36 893.3C115.36 890.42 113.42 888.4 110.64 888.4C107.86 888.4 105.9 890.42 105.9 893.3C105.9 896.18 107.82 898.16 110.6 898.16ZM110.6 896.5C108.92 896.5 107.88 895.3 107.88 893.36V893.28C107.88 891.3 108.96 890.06 110.64 890.06C112.32 890.06 113.38 891.3 113.38 893.28V893.36C113.38 895.28 112.3 896.5 110.6 896.5ZM120.11 898.16C121.47 898.16 122.39 897.54 122.91 896.38V898H124.87V888.56H122.91V893.08C122.91 895.12 122.19 896.46 120.63 896.46C119.35 896.46 118.71 895.66 118.71 894.2V888.56H116.73V894.3C116.73 896.7 117.99 898.16 120.11 898.16ZM134.915 898.16C137.215 898.16 138.635 896.94 139.255 895.02L137.375 894.44C137.055 895.72 136.395 896.5 134.875 896.5C133.235 896.5 132.275 895.18 132.275 893.32V893.24C132.275 891.36 133.295 890.06 134.935 890.06C136.295 890.06 136.975 890.82 137.295 892.02L139.175 891.44C138.595 889.6 137.195 888.4 134.975 888.4C132.215 888.4 130.295 890.44 130.295 893.26C130.295 896.14 132.095 898.16 134.915 898.16ZM144.663 898.16C147.443 898.16 149.423 896.14 149.423 893.3C149.423 890.42 147.483 888.4 144.703 888.4C141.923 888.4 139.963 890.42 139.963 893.3C139.963 896.18 141.883 898.16 144.663 898.16ZM144.663 896.5C142.983 896.5 141.943 895.3 141.943 893.36V893.28C141.943 891.3 143.023 890.06 144.703 890.06C146.383 890.06 147.443 891.3 147.443 893.28V893.36C147.443 895.28 146.363 896.5 144.663 896.5ZM150.972 898H152.932V892.72C152.932 891.02 153.772 890.1 154.912 890.1C156.032 890.1 156.632 890.78 156.632 892.18V898H158.612V892.72C158.612 891.08 159.332 890.1 160.592 890.1C161.712 890.1 162.312 890.78 162.312 892.18V898H164.292V892.08C164.292 889.74 163.152 888.36 161.352 888.36C159.752 888.36 158.752 889.18 158.292 890.42C157.852 888.92 156.792 888.36 155.692 888.36C154.332 888.36 153.412 889.04 152.932 890.22V888.56H150.972V898ZM166.206 901.72H168.146V896.64C168.806 897.6 169.866 898.2 171.166 898.2C173.606 898.2 175.426 896.28 175.426 893.24V893.22C175.426 890.2 173.606 888.36 171.186 888.36C169.866 888.36 168.786 888.96 168.126 889.96V888.56H166.206V901.72ZM170.686 896.52C169.026 896.52 168.026 895.26 168.026 893.4V893.24C168.026 891.36 169.046 890.04 170.686 890.04C172.306 890.04 173.366 891.14 173.366 893.16V893.3C173.366 895.34 172.286 896.52 170.686 896.52ZM176.968 898H178.948V884.52H176.968V898ZM185.19 898.16C187.61 898.16 188.95 897 189.59 895.54L187.85 894.86C187.49 895.78 186.79 896.56 185.19 896.56C183.59 896.56 182.57 895.58 182.45 893.96H189.55V893.24C189.55 890.26 187.89 888.4 185.11 888.4C182.43 888.4 180.49 890.42 180.49 893.34C180.49 896.24 182.29 898.16 185.19 898.16ZM182.41 892.48C182.61 890.94 183.65 890 185.07 890C186.55 890 187.45 890.86 187.53 892.48H182.41ZM193.833 898H195.513V896.28H194.393C193.793 896.28 193.553 896 193.553 895.4V890.24H195.593V888.56H193.553V885.54L191.653 886.72V888.56H190.153V890.24H191.653V895.64C191.673 897.14 192.113 897.92 193.833 898ZM200.874 898.16C203.294 898.16 204.634 897 205.274 895.54L203.534 894.86C203.174 895.78 202.474 896.56 200.874 896.56C199.274 896.56 198.254 895.58 198.134 893.96H205.234V893.24C205.234 890.26 203.574 888.4 200.794 888.4C198.114 888.4 196.174 890.42 196.174 893.34C196.174 896.24 197.974 898.16 200.874 898.16ZM198.094 892.48C198.294 890.94 199.334 890 200.754 890C202.234 890 203.134 890.86 203.214 892.48H198.094ZM210.511 898.2C211.831 898.2 212.911 897.62 213.571 896.62V898H215.491V884.52H213.571V889.98C212.891 888.98 211.831 888.36 210.531 888.36C208.071 888.36 206.271 890.32 206.271 893.32C206.271 896.38 208.091 898.2 210.511 898.2ZM211.011 896.52C209.391 896.52 208.331 895.42 208.331 893.4V893.26C208.331 891.22 209.411 890.04 211.011 890.04C212.671 890.04 213.671 891.3 213.671 893.16V893.32C213.671 895.2 212.631 896.52 211.011 896.52ZM241.544 898.24C242.904 898.24 244.084 897.7 244.724 896.58V898H246.624L246.604 896.54V891.88C246.604 889.48 245.164 888.4 242.744 888.4C240.244 888.4 238.564 889.68 238.504 891.8H240.484V891.68C240.564 890.62 241.324 889.98 242.724 889.98C244.164 889.98 244.744 890.58 244.744 891.36V891.5C244.544 892.02 243.564 892.12 241.964 892.46C239.864 892.92 238.284 893.4 238.284 895.52C238.284 897.14 239.524 898.24 241.544 898.24ZM241.904 896.74C240.864 896.74 240.284 896.22 240.284 895.44C240.284 894.44 241.164 894.1 242.244 893.82C243.164 893.6 244.164 893.44 244.744 893.04V894.2C244.584 896.04 243.284 896.74 241.904 896.74ZM252.649 898.16C254.949 898.16 256.369 896.94 256.989 895.02L255.109 894.44C254.789 895.72 254.129 896.5 252.609 896.5C250.969 896.5 250.009 895.18 250.009 893.32V893.24C250.009 891.36 251.029 890.06 252.669 890.06C254.029 890.06 254.709 890.82 255.029 892.02L256.909 891.44C256.329 889.6 254.929 888.4 252.709 888.4C249.949 888.4 248.029 890.44 248.029 893.26C248.029 896.14 249.829 898.16 252.649 898.16ZM261.177 898H262.857V896.28H261.737C261.137 896.28 260.897 896 260.897 895.4V890.24H262.937V888.56H260.897V885.54L258.997 886.72V888.56H257.497V890.24H258.997V895.64C259.017 897.14 259.457 897.92 261.177 898ZM264.427 887.04H266.547V884.96H264.427V887.04ZM264.487 898H266.467V888.56H264.487V898ZM271.193 898.02H273.013L276.533 888.56H274.473L272.093 895.66L269.593 888.56H267.553L271.193 898.02ZM277.513 887.04H279.633V884.96H277.513V887.04ZM277.573 898H279.553V888.56H277.573V898ZM284.575 898H286.255V896.28H285.135C284.535 896.28 284.295 896 284.295 895.4V890.24H286.335V888.56H284.295V885.54L282.395 886.72V888.56H280.895V890.24H282.395V895.64C282.415 897.14 282.855 897.92 284.575 898ZM287.826 887.04H289.946V884.96H287.826V887.04ZM287.886 898H289.866V888.56H287.886V898ZM296.128 898.16C298.548 898.16 299.888 897 300.528 895.54L298.788 894.86C298.428 895.78 297.728 896.56 296.128 896.56C294.528 896.56 293.508 895.58 293.388 893.96H300.488V893.24C300.488 890.26 298.828 888.4 296.048 888.4C293.368 888.4 291.428 890.42 291.428 893.34C291.428 896.24 293.228 898.16 296.128 898.16ZM293.348 892.48C293.548 890.94 294.588 890 296.008 890C297.488 890 298.388 890.86 298.468 892.48H293.348ZM305.567 898.26C307.707 898.26 309.247 896.98 309.247 895.24C309.247 893.38 307.467 892.76 305.747 892.42C304.027 892.08 303.387 891.94 303.387 891.16C303.387 890.44 304.047 889.96 305.067 889.96C306.047 889.96 306.907 890.4 307.447 891.22L309.147 890.38C308.227 889.16 306.847 888.36 305.067 888.36C303.067 888.36 301.507 889.62 301.507 891.28C301.507 893.1 303.047 893.7 304.767 894.06C306.247 894.38 307.347 894.56 307.347 895.38C307.347 896.16 306.707 896.64 305.647 896.64C304.647 896.64 303.667 896.22 303.087 895.38L301.387 896.28C302.247 897.48 303.747 898.26 305.567 898.26ZM317.485 898H319.165V896.28H318.045C317.445 896.28 317.205 896 317.205 895.4V890.24H319.245V888.56H317.205V885.54L315.305 886.72V888.56H313.805V890.24H315.305V895.64C315.325 897.14 315.765 897.92 317.485 898ZM324.507 898.16C327.287 898.16 329.267 896.14 329.267 893.3C329.267 890.42 327.327 888.4 324.547 888.4C321.767 888.4 319.807 890.42 319.807 893.3C319.807 896.18 321.727 898.16 324.507 898.16ZM324.507 896.5C322.827 896.5 321.787 895.3 321.787 893.36V893.28C321.787 891.3 322.867 890.06 324.547 890.06C326.227 890.06 327.287 891.3 327.287 893.28V893.36C327.287 895.28 326.207 896.5 324.507 896.5ZM334.515 898.2C335.835 898.2 336.915 897.62 337.575 896.62V898H339.495V884.52H337.575V889.98C336.895 888.98 335.835 888.36 334.535 888.36C332.075 888.36 330.275 890.32 330.275 893.32C330.275 896.38 332.095 898.2 334.515 898.2ZM335.015 896.52C333.395 896.52 332.335 895.42 332.335 893.4V893.26C332.335 891.22 333.415 890.04 335.015 890.04C336.675 890.04 337.675 891.3 337.675 893.16V893.32C337.675 895.2 336.635 896.52 335.015 896.52ZM344.298 898.24C345.658 898.24 346.838 897.7 347.478 896.58V898H349.378L349.358 896.54V891.88C349.358 889.48 347.918 888.4 345.498 888.4C342.998 888.4 341.318 889.68 341.258 891.8H343.238V891.68C343.318 890.62 344.078 889.98 345.478 889.98C346.918 889.98 347.498 890.58 347.498 891.36V891.5C347.298 892.02 346.318 892.12 344.718 892.46C342.618 892.92 341.038 893.4 341.038 895.52C341.038 897.14 342.278 898.24 344.298 898.24ZM344.658 896.74C343.618 896.74 343.038 896.22 343.038 895.44C343.038 894.44 343.918 894.1 344.998 893.82C345.918 893.6 346.918 893.44 347.498 893.04V894.2C347.338 896.04 346.038 896.74 344.658 896.74ZM350.334 901.8H351.334C353.594 901.8 354.414 900.92 355.274 898.68L358.894 888.56H356.814L354.514 895.6L351.994 888.56H349.934L353.574 897.82C352.834 899.74 352.534 900.02 351.234 900.02H350.334V901.8Z" fill="black"/>
<path d="M227 898.3C231.18 898.3 233.22 896.66 233.22 894.12C233.22 892.56 232.26 891.52 230.52 891.08C232.1 890.66 232.9 889.78 232.9 888.36C232.9 885.88 230.84 884.42 226.98 884.42C223.04 884.42 221.2 886.2 220.76 889.3H225.08C225.18 888.28 225.84 887.84 226.76 887.84C227.68 887.84 228.12 888.18 228.12 888.88V888.96C228.12 889.58 227.72 889.88 226.84 889.88H226.06V892.76H226.66C227.78 892.76 228.24 893.06 228.24 893.74V893.84C228.24 894.5 227.7 894.88 226.76 894.88C225.74 894.88 225.1 894.48 225.08 893.4H220.76C220.86 897.1 223.44 898.3 227 898.3Z" fill="#FCC243"/>
<g clip-path="url(#clip2_707_3101)">
<path opacity="0.6" d="M136.806 806.86V787.667H143.415V806.526C143.415 811.427 145.532 813.951 149.839 813.951C155.037 813.951 157.451 809.459 157.451 802.814V787.667H163.986V819.223H157.451V813.802C156.73 815.626 155.46 817.18 153.817 818.25C152.174 819.321 150.239 819.855 148.279 819.779C140.853 819.779 136.806 814.879 136.806 806.86Z" fill="black"/>
<path opacity="0.6" d="M170.93 787.667H177.502V793.644C178.173 791.635 179.484 789.901 181.234 788.708C182.984 787.514 185.078 786.927 187.193 787.036C193.989 787.036 198.147 791.64 198.147 800.067V819.222H191.538V800.401C191.538 795.426 189.458 792.976 185.188 792.976C180.287 792.976 177.502 797.06 177.502 804.113V819.222H170.93V787.667Z" fill="black"/>
<path d="M204.571 787.667H210.995V792.382C212.101 790.696 213.619 789.319 215.406 788.384C217.193 787.448 219.19 786.984 221.206 787.036C229.301 787.036 235.391 793.162 235.391 803.259C235.391 813.431 229.301 819.817 221.132 819.817C219.15 819.852 217.19 819.396 215.428 818.489C213.665 817.582 212.155 816.253 211.032 814.619V831.585H204.571V787.667ZM228.484 803.519V803.074C228.484 796.317 224.771 792.642 219.535 792.642C214.3 792.642 210.661 797.06 210.661 803.334V803.853C210.661 810.09 214.003 814.285 219.535 814.285C225.068 814.285 228.484 810.35 228.484 803.519Z" fill="black"/>
<path d="M240.515 774.192H247.124V819.223H240.515V774.192Z" fill="black"/>
<path d="M253.548 806.86V787.667H260.157V806.526C260.157 811.427 262.311 813.951 266.581 813.951C271.817 813.951 274.008 809.459 274.008 802.814V787.667H280.58V819.223H274.193V813.802C273.466 815.66 272.169 817.24 270.488 818.314C268.806 819.388 266.827 819.901 264.836 819.779C257.781 819.779 253.548 814.879 253.548 806.86Z" fill="black"/>
<path d="M285.036 825.905C285.141 824.277 285.763 822.726 286.811 821.477C287.86 820.228 289.281 819.347 290.866 818.963C289.502 818.795 288.238 818.159 287.29 817.164C286.342 816.169 285.769 814.876 285.667 813.506C285.667 810.758 287.747 808.68 291.349 807.863C289.953 806.826 288.82 805.476 288.04 803.923C287.26 802.369 286.854 800.654 286.856 798.916C286.91 797.247 287.304 795.607 288.012 794.095C288.719 792.583 289.727 791.231 290.974 790.12C292.22 789.009 293.68 788.163 295.263 787.633C296.847 787.103 298.522 786.9 300.186 787.036C302.343 786.913 304.497 787.338 306.445 788.273C308.394 789.208 310.073 790.622 311.326 792.382C311.778 790.993 312.664 789.785 313.854 788.937C315.043 788.088 316.474 787.643 317.935 787.668V794.498C317.076 794.15 316.133 794.066 315.227 794.258C314.32 794.449 313.491 794.908 312.848 795.575C313.156 796.637 313.318 797.736 313.331 798.842C313.331 806.007 308.058 810.61 300.037 810.61C298.605 810.624 297.178 810.423 295.804 810.016H295.359C292.945 810.016 291.646 810.944 291.646 812.281C291.646 813.617 293.576 814.842 296.51 814.842H303.082C313.108 814.842 318.195 818.109 318.195 824.531C318.195 830.954 311.66 834.852 301.003 834.852C290.346 834.852 285.036 831.808 285.036 825.905ZM312.031 824.977C312.031 821.858 309.246 820.448 302.6 820.448H298.664C294.393 820.448 290.792 822.23 290.792 825.385C290.792 828.541 294.505 830.063 301.226 830.063C307.946 830.063 312.031 828.132 312.031 824.977V824.977ZM307.241 798.99V798.73C307.241 796.83 306.486 795.008 305.142 793.664C303.798 792.32 301.975 791.566 300.075 791.566C298.174 791.566 296.351 792.32 295.007 793.664C293.663 795.008 292.908 796.83 292.908 798.73V798.99C293.089 800.765 293.922 802.409 295.246 803.605C296.57 804.8 298.291 805.462 300.075 805.462C301.859 805.462 303.579 804.8 304.903 803.605C306.227 802.409 307.06 800.765 307.241 798.99Z" fill="black"/>
<path d="M227.481 742.822C278.504 742.822 319.865 701.47 319.865 650.459C319.865 599.448 278.504 558.095 227.481 558.095C176.459 558.095 135.097 599.448 135.097 650.459C135.097 701.47 176.459 742.822 227.481 742.822Z" fill="#FCC243"/>
<path d="M227.481 751.955C207.403 751.955 187.775 746.002 171.081 734.849C154.386 723.697 141.374 707.845 133.691 689.3C126.007 670.754 123.996 650.346 127.914 630.658C131.831 610.97 141.499 592.885 155.697 578.69C169.895 564.496 187.984 554.829 207.676 550.913C227.369 546.997 247.781 549.007 266.331 556.689C284.881 564.371 300.736 577.38 311.891 594.071C323.046 610.762 329 630.385 329 650.459C328.971 677.368 318.265 703.167 299.233 722.195C280.201 741.222 254.397 751.925 227.481 751.955V751.955ZM227.481 567.191C211.009 567.191 194.906 572.074 181.21 581.224C167.513 590.373 156.838 603.378 150.535 618.593C144.231 633.809 142.581 650.551 145.795 666.704C149.009 682.856 156.941 697.693 168.589 709.338C180.237 720.984 195.077 728.914 211.233 732.127C227.389 735.34 244.135 733.691 259.354 727.389C274.573 721.086 287.58 710.413 296.732 696.72C305.884 683.027 310.768 666.928 310.768 650.459C310.749 628.381 301.967 607.213 286.352 591.601C270.737 575.989 249.564 567.21 227.481 567.191V567.191Z" fill="black"/>
<path fill-rule="evenodd" clip-rule="evenodd" d="M199.113 559.803L206.539 567.228C208.111 568.813 208.992 570.954 208.992 573.186C208.992 575.418 208.111 577.559 206.539 579.144L156.151 629.558C154.566 631.129 152.424 632.011 150.192 632.011C147.959 632.011 145.818 631.129 144.232 629.558L136.806 622.133" fill="black"/>
<path d="M257.41 747.388L244.822 734.618C242.629 732.413 241.398 729.43 241.398 726.321C241.398 723.212 242.629 720.229 244.822 718.024L295.061 667.795C297.299 665.664 300.27 664.476 303.36 664.476C306.45 664.476 309.422 665.664 311.659 667.795L318.417 674.552L313.739 678.933L306.981 672.139C306.502 671.636 305.926 671.235 305.288 670.961C304.649 670.688 303.962 670.546 303.267 670.546C302.573 670.546 301.886 670.688 301.247 670.961C300.609 671.235 300.033 671.636 299.554 672.139L249.315 722.701C248.826 723.185 248.441 723.764 248.186 724.403C247.93 725.042 247.809 725.726 247.83 726.414C247.816 727.1 247.94 727.783 248.195 728.421C248.45 729.058 248.831 729.638 249.315 730.126L262.125 742.896L257.41 747.388Z" fill="black"/>
<path d="M248.425 714.627L231.805 698.011C231.587 697.794 231.415 697.536 231.298 697.252C231.18 696.968 231.119 696.664 231.119 696.357C231.119 696.05 231.18 695.746 231.298 695.462C231.415 695.178 231.587 694.921 231.805 694.703L238.054 688.456C238.271 688.239 238.529 688.066 238.813 687.949C239.096 687.831 239.401 687.771 239.708 687.771C240.015 687.771 240.319 687.831 240.603 687.949C240.887 688.066 241.145 688.239 241.362 688.456L257.982 705.072L248.425 714.627Z" fill="black"/>
<path d="M282.193 680.967L265.573 664.351C265.134 663.912 264.888 663.317 264.888 662.697C264.888 662.077 265.134 661.482 265.573 661.043L271.796 654.822C272.235 654.383 272.83 654.137 273.45 654.137C274.07 654.137 274.665 654.383 275.104 654.822L291.724 671.438L282.193 680.967Z" fill="black"/>
<path d="M227.481 751.955C207.403 751.955 187.775 746.002 171.081 734.849C154.386 723.697 141.374 707.845 133.691 689.3C126.007 670.754 123.996 650.346 127.914 630.658C131.831 610.97 141.499 592.885 155.697 578.69C169.895 564.496 187.984 554.829 207.676 550.913C227.369 546.997 247.781 549.007 266.331 556.689C284.881 564.371 300.736 577.38 311.891 594.071C323.046 610.762 329 630.385 329 650.459C328.971 677.368 318.265 703.167 299.233 722.195C280.201 741.222 254.397 751.925 227.481 751.955V751.955ZM227.481 567.191C211.009 567.191 194.906 572.074 181.21 581.224C167.513 590.373 156.838 603.378 150.535 618.593C144.231 633.809 142.581 650.551 145.795 666.704C149.009 682.856 156.941 697.693 168.589 709.338C180.237 720.984 195.077 728.914 211.233 732.127C227.389 735.34 244.135 733.691 259.354 727.389C274.573 721.086 287.58 710.413 296.732 696.72C305.884 683.027 310.768 666.928 310.768 650.459C310.749 628.381 301.967 607.213 286.352 591.601C270.737 575.989 249.564 567.21 227.481 567.191V567.191Z" fill="black"/>
</g>
<path d="M569.849 898H571.849V891.92L576.649 884.72H574.409L570.869 890.12L567.369 884.72H565.089L569.849 891.88V898ZM579.444 898.16C582.224 898.16 584.204 896.14 584.204 893.3C584.204 890.42 582.264 888.4 579.484 888.4C576.704 888.4 574.744 890.42 574.744 893.3C574.744 896.18 576.664 898.16 579.444 898.16ZM579.444 896.5C577.764 896.5 576.724 895.3 576.724 893.36V893.28C576.724 891.3 577.804 890.06 579.484 890.06C581.164 890.06 582.224 891.3 582.224 893.28V893.36C582.224 895.28 581.144 896.5 579.444 896.5ZM588.953 898.16C590.313 898.16 591.233 897.54 591.753 896.38V898H593.713V888.56H591.753V893.08C591.753 895.12 591.033 896.46 589.473 896.46C588.193 896.46 587.553 895.66 587.553 894.2V888.56H585.573V894.3C585.573 896.7 586.833 898.16 588.953 898.16ZM603.759 898.16C606.059 898.16 607.479 896.94 608.099 895.02L606.219 894.44C605.899 895.72 605.239 896.5 603.719 896.5C602.079 896.5 601.119 895.18 601.119 893.32V893.24C601.119 891.36 602.139 890.06 603.779 890.06C605.139 890.06 605.819 890.82 606.139 892.02L608.019 891.44C607.439 889.6 606.039 888.4 603.819 888.4C601.059 888.4 599.139 890.44 599.139 893.26C599.139 896.14 600.939 898.16 603.759 898.16ZM613.507 898.16C616.287 898.16 618.267 896.14 618.267 893.3C618.267 890.42 616.327 888.4 613.547 888.4C610.767 888.4 608.807 890.42 608.807 893.3C608.807 896.18 610.727 898.16 613.507 898.16ZM613.507 896.5C611.827 896.5 610.787 895.3 610.787 893.36V893.28C610.787 891.3 611.867 890.06 613.547 890.06C615.227 890.06 616.287 891.3 616.287 893.28V893.36C616.287 895.28 615.207 896.5 613.507 896.5ZM619.815 898H621.775V892.72C621.775 891.02 622.615 890.1 623.755 890.1C624.875 890.1 625.475 890.78 625.475 892.18V898H627.455V892.72C627.455 891.08 628.175 890.1 629.435 890.1C630.555 890.1 631.155 890.78 631.155 892.18V898H633.135V892.08C633.135 889.74 631.995 888.36 630.195 888.36C628.595 888.36 627.595 889.18 627.135 890.42C626.695 888.92 625.635 888.36 624.535 888.36C623.175 888.36 622.255 889.04 621.775 890.22V888.56H619.815V898ZM635.05 901.72H636.99V896.64C637.65 897.6 638.71 898.2 640.01 898.2C642.45 898.2 644.27 896.28 644.27 893.24V893.22C644.27 890.2 642.45 888.36 640.03 888.36C638.71 888.36 637.63 888.96 636.97 889.96V888.56H635.05V901.72ZM639.53 896.52C637.87 896.52 636.87 895.26 636.87 893.4V893.24C636.87 891.36 637.89 890.04 639.53 890.04C641.15 890.04 642.21 891.14 642.21 893.16V893.3C642.21 895.34 641.13 896.52 639.53 896.52ZM645.811 898H647.791V884.52H645.811V898ZM654.034 898.16C656.454 898.16 657.794 897 658.434 895.54L656.694 894.86C656.334 895.78 655.634 896.56 654.034 896.56C652.434 896.56 651.414 895.58 651.294 893.96H658.394V893.24C658.394 890.26 656.734 888.4 653.954 888.4C651.274 888.4 649.334 890.42 649.334 893.34C649.334 896.24 651.134 898.16 654.034 898.16ZM651.254 892.48C651.454 890.94 652.494 890 653.914 890C655.394 890 656.294 890.86 656.374 892.48H651.254ZM662.677 898H664.357V896.28H663.237C662.637 896.28 662.397 896 662.397 895.4V890.24H664.437V888.56H662.397V885.54L660.497 886.72V888.56H658.997V890.24H660.497V895.64C660.517 897.14 660.957 897.92 662.677 898ZM669.718 898.16C672.138 898.16 673.478 897 674.118 895.54L672.378 894.86C672.018 895.78 671.318 896.56 669.718 896.56C668.118 896.56 667.098 895.58 666.978 893.96H674.078V893.24C674.078 890.26 672.418 888.4 669.638 888.4C666.958 888.4 665.018 890.42 665.018 893.34C665.018 896.24 666.818 898.16 669.718 898.16ZM666.938 892.48C667.138 890.94 668.178 890 669.598 890C671.078 890 671.978 890.86 672.058 892.48H666.938ZM679.355 898.2C680.675 898.2 681.755 897.62 682.415 896.62V898H684.335V884.52H682.415V889.98C681.735 888.98 680.675 888.36 679.375 888.36C676.915 888.36 675.115 890.32 675.115 893.32C675.115 896.38 676.935 898.2 679.355 898.2ZM679.855 896.52C678.235 896.52 677.175 895.42 677.175 893.4V893.26C677.175 891.22 678.255 890.04 679.855 890.04C681.515 890.04 682.515 891.3 682.515 893.16V893.32C682.515 895.2 681.475 896.52 679.855 896.52ZM710.7 898.24C712.06 898.24 713.24 897.7 713.88 896.58V898H715.78L715.76 896.54V891.88C715.76 889.48 714.32 888.4 711.9 888.4C709.4 888.4 707.72 889.68 707.66 891.8H709.64V891.68C709.72 890.62 710.48 889.98 711.88 889.98C713.32 889.98 713.9 890.58 713.9 891.36V891.5C713.7 892.02 712.72 892.12 711.12 892.46C709.02 892.92 707.44 893.4 707.44 895.52C707.44 897.14 708.68 898.24 710.7 898.24ZM711.06 896.74C710.02 896.74 709.44 896.22 709.44 895.44C709.44 894.44 710.32 894.1 711.4 893.82C712.32 893.6 713.32 893.44 713.9 893.04V894.2C713.74 896.04 712.44 896.74 711.06 896.74ZM721.806 898.16C724.106 898.16 725.526 896.94 726.146 895.02L724.266 894.44C723.946 895.72 723.286 896.5 721.766 896.5C720.126 896.5 719.166 895.18 719.166 893.32V893.24C719.166 891.36 720.186 890.06 721.826 890.06C723.186 890.06 723.866 890.82 724.186 892.02L726.066 891.44C725.486 889.6 724.086 888.4 721.866 888.4C719.106 888.4 717.186 890.44 717.186 893.26C717.186 896.14 718.986 898.16 721.806 898.16ZM730.333 898H732.013V896.28H730.893C730.293 896.28 730.053 896 730.053 895.4V890.24H732.093V888.56H730.053V885.54L728.153 886.72V888.56H726.653V890.24H728.153V895.64C728.173 897.14 728.613 897.92 730.333 898ZM733.584 887.04H735.704V884.96H733.584V887.04ZM733.644 898H735.624V888.56H733.644V898ZM740.349 898.02H742.169L745.689 888.56H743.629L741.249 895.66L738.749 888.56H736.709L740.349 898.02ZM746.669 887.04H748.789V884.96H746.669V887.04ZM746.729 898H748.709V888.56H746.729V898ZM753.731 898H755.411V896.28H754.291C753.691 896.28 753.451 896 753.451 895.4V890.24H755.491V888.56H753.451V885.54L751.551 886.72V888.56H750.051V890.24H751.551V895.64C751.571 897.14 752.011 897.92 753.731 898ZM756.982 887.04H759.102V884.96H756.982V887.04ZM757.042 898H759.022V888.56H757.042V898ZM765.284 898.16C767.704 898.16 769.044 897 769.684 895.54L767.944 894.86C767.584 895.78 766.884 896.56 765.284 896.56C763.684 896.56 762.664 895.58 762.544 893.96H769.644V893.24C769.644 890.26 767.984 888.4 765.204 888.4C762.524 888.4 760.584 890.42 760.584 893.34C760.584 896.24 762.384 898.16 765.284 898.16ZM762.504 892.48C762.704 890.94 763.744 890 765.164 890C766.644 890 767.544 890.86 767.624 892.48H762.504ZM774.723 898.26C776.863 898.26 778.403 896.98 778.403 895.24C778.403 893.38 776.623 892.76 774.903 892.42C773.183 892.08 772.543 891.94 772.543 891.16C772.543 890.44 773.203 889.96 774.223 889.96C775.203 889.96 776.063 890.4 776.603 891.22L778.303 890.38C777.383 889.16 776.003 888.36 774.223 888.36C772.223 888.36 770.663 889.62 770.663 891.28C770.663 893.1 772.203 893.7 773.923 894.06C775.403 894.38 776.503 894.56 776.503 895.38C776.503 896.16 775.863 896.64 774.803 896.64C773.803 896.64 772.823 896.22 772.243 895.38L770.543 896.28C771.403 897.48 772.903 898.26 774.723 898.26ZM786.642 898H788.322V896.28H787.202C786.602 896.28 786.362 896 786.362 895.4V890.24H788.402V888.56H786.362V885.54L784.462 886.72V888.56H782.962V890.24H784.462V895.64C784.482 897.14 784.922 897.92 786.642 898ZM793.663 898.16C796.443 898.16 798.423 896.14 798.423 893.3C798.423 890.42 796.483 888.4 793.703 888.4C790.923 888.4 788.963 890.42 788.963 893.3C788.963 896.18 790.883 898.16 793.663 898.16ZM793.663 896.5C791.983 896.5 790.943 895.3 790.943 893.36V893.28C790.943 891.3 792.023 890.06 793.703 890.06C795.383 890.06 796.443 891.3 796.443 893.28V893.36C796.443 895.28 795.363 896.5 793.663 896.5ZM803.672 898.2C804.992 898.2 806.072 897.62 806.732 896.62V898H808.652V884.52H806.732V889.98C806.052 888.98 804.992 888.36 803.692 888.36C801.232 888.36 799.432 890.32 799.432 893.32C799.432 896.38 801.252 898.2 803.672 898.2ZM804.172 896.52C802.552 896.52 801.492 895.42 801.492 893.4V893.26C801.492 891.22 802.572 890.04 804.172 890.04C805.832 890.04 806.832 891.3 806.832 893.16V893.32C806.832 895.2 805.792 896.52 804.172 896.52ZM813.454 898.24C814.814 898.24 815.994 897.7 816.634 896.58V898H818.534L818.514 896.54V891.88C818.514 889.48 817.074 888.4 814.654 888.4C812.154 888.4 810.474 889.68 810.414 891.8H812.394V891.68C812.474 890.62 813.234 889.98 814.634 889.98C816.074 889.98 816.654 890.58 816.654 891.36V891.5C816.454 892.02 815.474 892.12 813.874 892.46C811.774 892.92 810.194 893.4 810.194 895.52C810.194 897.14 811.434 898.24 813.454 898.24ZM813.814 896.74C812.774 896.74 812.194 896.22 812.194 895.44C812.194 894.44 813.074 894.1 814.154 893.82C815.074 893.6 816.074 893.44 816.654 893.04V894.2C816.494 896.04 815.194 896.74 813.814 896.74ZM819.49 901.8H820.49C822.75 901.8 823.57 900.92 824.43 898.68L828.05 888.56H825.97L823.67 895.6L821.15 888.56H819.09L822.73 897.82C821.99 899.74 821.69 900.02 820.39 900.02H819.49V901.8Z" fill="black"/>
<path d="M695.884 898H700.884V895.4H702.524V892.4H700.884V887.96L695.984 890.76V892.4H692.844L701.204 884.72H694.104L689.444 892.92V895.4H695.884V898Z" fill="#E2DE55"/>
<g clip-path="url(#clip3_707_3101)">
<path opacity="0.8" d="M607.217 806.86V787.667H613.863V806.526C613.863 811.427 615.98 813.951 620.287 813.951C625.486 813.951 627.899 809.459 627.899 802.814V787.667H634.434V819.223H627.899V813.802C627.168 815.657 625.869 817.233 624.189 818.306C622.509 819.379 620.533 819.895 618.542 819.779C611.45 819.779 607.217 814.879 607.217 806.86Z" fill="black"/>
<path opacity="0.8" d="M641.378 787.667H647.95V793.644C648.621 791.635 649.932 789.901 651.682 788.708C653.433 787.514 655.526 786.927 657.642 787.036C664.437 787.036 668.596 791.64 668.596 800.067V819.222H661.838V800.401C661.838 795.426 659.758 792.976 655.488 792.976C650.587 792.976 647.802 797.06 647.802 804.113V819.222H641.378V787.667Z" fill="black"/>
<path d="M675.02 787.667H681.406V792.382C682.513 790.714 684.021 789.35 685.792 788.416C687.563 787.482 689.541 787.007 691.543 787.036C699.638 787.036 705.728 793.162 705.728 803.259C705.839 813.505 699.749 820.002 691.543 820.002C689.561 820.038 687.601 819.582 685.839 818.675C684.076 817.768 682.566 816.438 681.443 814.805V831.77H675.02V787.667ZM698.97 803.519V803.074C698.97 796.317 695.442 792.642 690.021 792.642C684.6 792.642 681.109 797.06 681.109 803.334V803.853C681.109 810.09 684.451 814.285 690.021 814.285C695.591 814.285 698.97 810.35 698.97 803.519Z" fill="black"/>
<path d="M710.963 774.192H717.535V819.223H710.963V774.192Z" fill="black"/>
<path d="M723.996 806.86V787.667H730.606V806.526C730.606 811.427 732.759 813.951 737.029 813.951C742.265 813.951 744.456 809.459 744.456 802.814V787.667H751.028V819.223H744.641V813.802C743.915 815.66 742.617 817.24 740.936 818.314C739.254 819.388 737.276 819.901 735.284 819.779C728.192 819.779 723.996 814.879 723.996 806.86Z" fill="black"/>
<path d="M755.484 825.905C755.592 824.284 756.211 822.739 757.252 821.492C758.292 820.245 759.701 819.359 761.277 818.963C759.913 818.795 758.649 818.159 757.701 817.164C756.753 816.169 756.18 814.876 756.078 813.506C756.078 810.758 758.158 808.68 761.76 807.863C760.364 806.826 759.231 805.476 758.451 803.923C757.671 802.369 757.265 800.654 757.267 798.916C757.321 797.247 757.715 795.607 758.423 794.095C759.131 792.583 760.138 791.231 761.385 790.12C762.632 789.009 764.091 788.163 765.674 787.633C767.258 787.103 768.933 786.9 770.597 787.036C772.755 786.913 774.908 787.338 776.856 788.273C778.805 789.208 780.484 790.622 781.737 792.382C782.175 791.035 783.022 789.858 784.16 789.013C785.297 788.168 786.669 787.698 788.086 787.668V794.498C787.228 794.15 786.284 794.066 785.378 794.258C784.471 794.449 783.643 794.908 782.999 795.575C783.307 796.637 783.47 797.736 783.482 798.842C783.482 806.007 778.209 810.61 770.189 810.61C768.756 810.624 767.329 810.423 765.956 810.016H765.51C763.096 810.016 761.797 810.944 761.797 812.281C761.797 813.617 763.728 814.842 766.661 814.842H773.233C783.259 814.842 788.346 818.109 788.346 824.531C788.346 830.954 782.034 834.852 771.451 834.852C760.868 834.852 755.484 831.808 755.484 825.905ZM782.479 824.977C782.479 821.858 779.657 820.448 773.048 820.448H769.112C764.842 820.448 761.24 822.23 761.24 825.385C761.24 828.541 764.953 830.063 771.637 830.063C778.32 830.063 782.479 828.132 782.479 824.977V824.977ZM777.652 798.99V798.73C777.522 796.924 776.712 795.234 775.386 794C774.06 792.767 772.316 792.081 770.504 792.081C768.693 792.081 766.949 792.767 765.622 794C764.296 795.234 763.487 796.924 763.356 798.73V798.99C763.487 800.797 764.296 802.487 765.622 803.72C766.949 804.954 768.693 805.64 770.504 805.64C772.316 805.64 774.06 804.954 775.386 803.72C776.712 802.487 777.522 800.797 777.652 798.99Z" fill="black"/>
<path d="M696.482 742.822C747.504 742.822 788.866 701.47 788.866 650.459C788.866 599.448 747.504 558.095 696.482 558.095C645.459 558.095 604.098 599.448 604.098 650.459C604.098 701.47 645.459 742.822 696.482 742.822Z" fill="#E2DE55"/>
<path d="M696.481 751.955C676.403 751.955 656.775 746.002 640.081 734.849C623.386 723.697 610.374 707.845 602.691 689.3C595.007 670.754 592.996 650.346 596.914 630.658C600.831 610.97 610.499 592.885 624.697 578.69C638.895 564.496 656.984 554.829 676.676 550.913C696.369 546.997 716.781 549.007 735.331 556.689C753.881 564.371 769.736 577.38 780.891 594.071C792.046 610.762 798 630.385 798 650.459C797.971 677.368 787.265 703.167 768.233 722.195C749.201 741.222 723.397 751.925 696.481 751.955V751.955ZM696.481 567.191C680.009 567.191 663.906 572.074 650.21 581.224C636.513 590.373 625.838 603.378 619.535 618.593C613.231 633.809 611.581 650.551 614.795 666.704C618.009 682.856 625.941 697.693 637.589 709.338C649.237 720.984 664.077 728.914 680.233 732.127C696.389 735.34 713.135 733.691 728.354 727.389C743.573 721.086 756.58 710.413 765.732 696.72C774.884 683.027 779.768 666.928 779.768 650.459C779.749 628.381 770.967 607.213 755.352 591.601C739.737 575.989 718.564 567.21 696.481 567.191V567.191Z" fill="black"/>
<path fill-rule="evenodd" clip-rule="evenodd" d="M665.031 556.722C665.818 557.502 666.443 558.43 666.869 559.452C667.295 560.475 667.515 561.572 667.515 562.68C667.515 563.788 667.295 564.885 666.869 565.908C666.443 566.93 665.818 567.858 665.031 568.638L614.643 619.015C613.863 619.802 612.934 620.426 611.912 620.853C610.889 621.279 609.791 621.498 608.683 621.498C607.575 621.498 606.478 621.279 605.455 620.853C604.432 620.426 603.504 619.802 602.724 619.015" fill="black"/>
<path d="M724.182 745.124C723.087 744.037 722.218 742.744 721.626 741.32C721.033 739.896 720.728 738.369 720.728 736.827C720.728 735.284 721.033 733.757 721.626 732.333C722.218 730.909 723.087 729.616 724.182 728.53L774.57 678.153C775.657 677.059 776.95 676.19 778.374 675.597C779.798 675.005 781.326 674.699 782.869 674.699C784.411 674.699 785.939 675.005 787.363 675.597C788.788 676.19 790.081 677.059 791.168 678.153L786.489 682.83C786.01 682.327 785.434 681.927 784.796 681.653C784.158 681.379 783.47 681.238 782.776 681.238C782.081 681.238 781.394 681.379 780.756 681.653C780.117 681.927 779.541 682.327 779.063 682.83L728.86 733.207C728.357 733.686 727.956 734.262 727.682 734.9C727.409 735.538 727.267 736.225 727.267 736.92C727.267 737.614 727.409 738.301 727.682 738.939C727.956 739.577 728.357 740.153 728.86 740.632L724.182 745.124Z" fill="black"/>
<path d="M727.996 725.173L711.376 708.557C710.937 708.118 710.691 707.523 710.691 706.903C710.691 706.283 710.937 705.688 711.376 705.249L717.625 699.002C718.064 698.563 718.659 698.316 719.279 698.316C719.899 698.316 720.494 698.563 720.933 699.002L737.553 715.618L727.996 725.173Z" fill="black"/>
<path d="M761.649 691.502L745.029 674.885C744.591 674.447 744.344 673.852 744.344 673.232C744.344 672.611 744.591 672.017 745.029 671.578L751.278 665.33C751.717 664.892 752.312 664.645 752.932 664.645C753.553 664.645 754.148 664.892 754.586 665.33L771.207 681.947L761.649 691.502Z" fill="black"/>
<path d="M696.481 751.955C676.403 751.955 656.775 746.002 640.081 734.849C623.386 723.697 610.374 707.845 602.691 689.3C595.007 670.754 592.996 650.346 596.914 630.658C600.831 610.97 610.499 592.885 624.697 578.69C638.895 564.496 656.984 554.829 676.676 550.913C696.369 546.997 716.781 549.007 735.331 556.689C753.881 564.371 769.736 577.38 780.891 594.071C792.046 610.762 798 630.385 798 650.459C797.971 677.368 787.265 703.167 768.233 722.195C749.201 741.222 723.397 751.925 696.481 751.955V751.955ZM696.481 567.191C680.009 567.191 663.906 572.074 650.21 581.224C636.513 590.373 625.838 603.378 619.535 618.593C613.231 633.809 611.581 650.551 614.795 666.704C618.009 682.856 625.941 697.693 637.589 709.338C649.237 720.984 664.077 728.914 680.233 732.127C696.389 735.34 713.135 733.691 728.354 727.389C743.573 721.086 756.58 710.413 765.732 696.72C774.884 683.027 779.768 666.928 779.768 650.459C779.749 628.381 770.967 607.213 755.352 591.601C739.737 575.989 718.564 567.21 696.481 567.191V567.191Z" fill="black"/>
</g>
<path d="M1060.62 898H1062.62V891.92L1067.42 884.72H1065.18L1061.64 890.12L1058.14 884.72H1055.86L1060.62 891.88V898ZM1070.21 898.16C1072.99 898.16 1074.97 896.14 1074.97 893.3C1074.97 890.42 1073.03 888.4 1070.25 888.4C1067.47 888.4 1065.51 890.42 1065.51 893.3C1065.51 896.18 1067.43 898.16 1070.21 898.16ZM1070.21 896.5C1068.53 896.5 1067.49 895.3 1067.49 893.36V893.28C1067.49 891.3 1068.57 890.06 1070.25 890.06C1071.93 890.06 1072.99 891.3 1072.99 893.28V893.36C1072.99 895.28 1071.91 896.5 1070.21 896.5ZM1079.72 898.16C1081.08 898.16 1082 897.54 1082.52 896.38V898H1084.48V888.56H1082.52V893.08C1082.52 895.12 1081.8 896.46 1080.24 896.46C1078.96 896.46 1078.32 895.66 1078.32 894.2V888.56H1076.34V894.3C1076.34 896.7 1077.6 898.16 1079.72 898.16ZM1094.53 898.16C1096.83 898.16 1098.25 896.94 1098.87 895.02L1096.99 894.44C1096.67 895.72 1096.01 896.5 1094.49 896.5C1092.85 896.5 1091.89 895.18 1091.89 893.32V893.24C1091.89 891.36 1092.91 890.06 1094.55 890.06C1095.91 890.06 1096.59 890.82 1096.91 892.02L1098.79 891.44C1098.21 889.6 1096.81 888.4 1094.59 888.4C1091.83 888.4 1089.91 890.44 1089.91 893.26C1089.91 896.14 1091.71 898.16 1094.53 898.16ZM1104.27 898.16C1107.05 898.16 1109.03 896.14 1109.03 893.3C1109.03 890.42 1107.09 888.4 1104.31 888.4C1101.53 888.4 1099.57 890.42 1099.57 893.3C1099.57 896.18 1101.49 898.16 1104.27 898.16ZM1104.27 896.5C1102.59 896.5 1101.55 895.3 1101.55 893.36V893.28C1101.55 891.3 1102.63 890.06 1104.31 890.06C1105.99 890.06 1107.05 891.3 1107.05 893.28V893.36C1107.05 895.28 1105.97 896.5 1104.27 896.5ZM1110.58 898H1112.54V892.72C1112.54 891.02 1113.38 890.1 1114.52 890.1C1115.64 890.1 1116.24 890.78 1116.24 892.18V898H1118.22V892.72C1118.22 891.08 1118.94 890.1 1120.2 890.1C1121.32 890.1 1121.92 890.78 1121.92 892.18V898H1123.9V892.08C1123.9 889.74 1122.76 888.36 1120.96 888.36C1119.36 888.36 1118.36 889.18 1117.9 890.42C1117.46 888.92 1116.4 888.36 1115.3 888.36C1113.94 888.36 1113.02 889.04 1112.54 890.22V888.56H1110.58V898ZM1125.82 901.72H1127.76V896.64C1128.42 897.6 1129.48 898.2 1130.78 898.2C1133.22 898.2 1135.04 896.28 1135.04 893.24V893.22C1135.04 890.2 1133.22 888.36 1130.8 888.36C1129.48 888.36 1128.4 888.96 1127.74 889.96V888.56H1125.82V901.72ZM1130.3 896.52C1128.64 896.52 1127.64 895.26 1127.64 893.4V893.24C1127.64 891.36 1128.66 890.04 1130.3 890.04C1131.92 890.04 1132.98 891.14 1132.98 893.16V893.3C1132.98 895.34 1131.9 896.52 1130.3 896.52ZM1136.58 898H1138.56V884.52H1136.58V898ZM1144.8 898.16C1147.22 898.16 1148.56 897 1149.2 895.54L1147.46 894.86C1147.1 895.78 1146.4 896.56 1144.8 896.56C1143.2 896.56 1142.18 895.58 1142.06 893.96H1149.16V893.24C1149.16 890.26 1147.5 888.4 1144.72 888.4C1142.04 888.4 1140.1 890.42 1140.1 893.34C1140.1 896.24 1141.9 898.16 1144.8 898.16ZM1142.02 892.48C1142.22 890.94 1143.26 890 1144.68 890C1146.16 890 1147.06 890.86 1147.14 892.48H1142.02ZM1153.44 898H1155.12V896.28H1154C1153.4 896.28 1153.16 896 1153.16 895.4V890.24H1155.2V888.56H1153.16V885.54L1151.26 886.72V888.56H1149.76V890.24H1151.26V895.64C1151.28 897.14 1151.72 897.92 1153.44 898ZM1160.49 898.16C1162.91 898.16 1164.25 897 1164.89 895.54L1163.15 894.86C1162.79 895.78 1162.09 896.56 1160.49 896.56C1158.89 896.56 1157.87 895.58 1157.75 893.96H1164.85V893.24C1164.85 890.26 1163.19 888.4 1160.41 888.4C1157.73 888.4 1155.79 890.42 1155.79 893.34C1155.79 896.24 1157.59 898.16 1160.49 898.16ZM1157.71 892.48C1157.91 890.94 1158.95 890 1160.37 890C1161.85 890 1162.75 890.86 1162.83 892.48H1157.71ZM1170.12 898.2C1171.44 898.2 1172.52 897.62 1173.18 896.62V898H1175.1V884.52H1173.18V889.98C1172.5 888.98 1171.44 888.36 1170.14 888.36C1167.68 888.36 1165.88 890.32 1165.88 893.32C1165.88 896.38 1167.7 898.2 1170.12 898.2ZM1170.62 896.52C1169 896.52 1167.94 895.42 1167.94 893.4V893.26C1167.94 891.22 1169.02 890.04 1170.62 890.04C1172.28 890.04 1173.28 891.3 1173.28 893.16V893.32C1173.28 895.2 1172.24 896.52 1170.62 896.52ZM1106.54 926.24C1107.9 926.24 1109.08 925.7 1109.72 924.58V926H1111.62L1111.6 924.54V919.88C1111.6 917.48 1110.16 916.4 1107.74 916.4C1105.24 916.4 1103.56 917.68 1103.5 919.8H1105.48V919.68C1105.56 918.62 1106.32 917.98 1107.72 917.98C1109.16 917.98 1109.74 918.58 1109.74 919.36V919.5C1109.54 920.02 1108.56 920.12 1106.96 920.46C1104.86 920.92 1103.28 921.4 1103.28 923.52C1103.28 925.14 1104.52 926.24 1106.54 926.24ZM1106.9 924.74C1105.86 924.74 1105.28 924.22 1105.28 923.44C1105.28 922.44 1106.16 922.1 1107.24 921.82C1108.16 921.6 1109.16 921.44 1109.74 921.04V922.2C1109.58 924.04 1108.28 924.74 1106.9 924.74ZM1117.64 926.16C1119.94 926.16 1121.36 924.94 1121.98 923.02L1120.1 922.44C1119.78 923.72 1119.12 924.5 1117.6 924.5C1115.96 924.5 1115 923.18 1115 921.32V921.24C1115 919.36 1116.02 918.06 1117.66 918.06C1119.02 918.06 1119.7 918.82 1120.02 920.02L1121.9 919.44C1121.32 917.6 1119.92 916.4 1117.7 916.4C1114.94 916.4 1113.02 918.44 1113.02 921.26C1113.02 924.14 1114.82 926.16 1117.64 926.16ZM1126.17 926H1127.85V924.28H1126.73C1126.13 924.28 1125.89 924 1125.89 923.4V918.24H1127.93V916.56H1125.89V913.54L1123.99 914.72V916.56H1122.49V918.24H1123.99V923.64C1124.01 925.14 1124.45 925.92 1126.17 926ZM1129.42 915.04H1131.54V912.96H1129.42V915.04ZM1129.48 926H1131.46V916.56H1129.48V926ZM1136.18 926.02H1138L1141.52 916.56H1139.46L1137.08 923.66L1134.58 916.56H1132.54L1136.18 926.02ZM1142.51 915.04H1144.63V912.96H1142.51V915.04ZM1142.57 926H1144.55V916.56H1142.57V926ZM1149.57 926H1151.25V924.28H1150.13C1149.53 924.28 1149.29 924 1149.29 923.4V918.24H1151.33V916.56H1149.29V913.54L1147.39 914.72V916.56H1145.89V918.24H1147.39V923.64C1147.41 925.14 1147.85 925.92 1149.57 926ZM1152.82 915.04H1154.94V912.96H1152.82V915.04ZM1152.88 926H1154.86V916.56H1152.88V926ZM1161.12 926.16C1163.54 926.16 1164.88 925 1165.52 923.54L1163.78 922.86C1163.42 923.78 1162.72 924.56 1161.12 924.56C1159.52 924.56 1158.5 923.58 1158.38 921.96H1165.48V921.24C1165.48 918.26 1163.82 916.4 1161.04 916.4C1158.36 916.4 1156.42 918.42 1156.42 921.34C1156.42 924.24 1158.22 926.16 1161.12 926.16ZM1158.34 920.48C1158.54 918.94 1159.58 918 1161 918C1162.48 918 1163.38 918.86 1163.46 920.48H1158.34ZM1170.56 926.26C1172.7 926.26 1174.24 924.98 1174.24 923.24C1174.24 921.38 1172.46 920.76 1170.74 920.42C1169.02 920.08 1168.38 919.94 1168.38 919.16C1168.38 918.44 1169.04 917.96 1170.06 917.96C1171.04 917.96 1171.9 918.4 1172.44 919.22L1174.14 918.38C1173.22 917.16 1171.84 916.36 1170.06 916.36C1168.06 916.36 1166.5 917.62 1166.5 919.28C1166.5 921.1 1168.04 921.7 1169.76 922.06C1171.24 922.38 1172.34 922.56 1172.34 923.38C1172.34 924.16 1171.7 924.64 1170.64 924.64C1169.64 924.64 1168.66 924.22 1168.08 923.38L1166.38 924.28C1167.24 925.48 1168.74 926.26 1170.56 926.26ZM1182.48 926H1184.16V924.28H1183.04C1182.44 924.28 1182.2 924 1182.2 923.4V918.24H1184.24V916.56H1182.2V913.54L1180.3 914.72V916.56H1178.8V918.24H1180.3V923.64C1180.32 925.14 1180.76 925.92 1182.48 926ZM1189.5 926.16C1192.28 926.16 1194.26 924.14 1194.26 921.3C1194.26 918.42 1192.32 916.4 1189.54 916.4C1186.76 916.4 1184.8 918.42 1184.8 921.3C1184.8 924.18 1186.72 926.16 1189.5 926.16ZM1189.5 924.5C1187.82 924.5 1186.78 923.3 1186.78 921.36V921.28C1186.78 919.3 1187.86 918.06 1189.54 918.06C1191.22 918.06 1192.28 919.3 1192.28 921.28V921.36C1192.28 923.28 1191.2 924.5 1189.5 924.5ZM1199.51 926.2C1200.83 926.2 1201.91 925.62 1202.57 924.62V926H1204.49V912.52H1202.57V917.98C1201.89 916.98 1200.83 916.36 1199.53 916.36C1197.07 916.36 1195.27 918.32 1195.27 921.32C1195.27 924.38 1197.09 926.2 1199.51 926.2ZM1200.01 924.52C1198.39 924.52 1197.33 923.42 1197.33 921.4V921.26C1197.33 919.22 1198.41 918.04 1200.01 918.04C1201.67 918.04 1202.67 919.3 1202.67 921.16V921.32C1202.67 923.2 1201.63 924.52 1200.01 924.52ZM1209.29 926.24C1210.65 926.24 1211.83 925.7 1212.47 924.58V926H1214.37L1214.35 924.54V919.88C1214.35 917.48 1212.91 916.4 1210.49 916.4C1207.99 916.4 1206.31 917.68 1206.25 919.8H1208.23V919.68C1208.31 918.62 1209.07 917.98 1210.47 917.98C1211.91 917.98 1212.49 918.58 1212.49 919.36V919.5C1212.29 920.02 1211.31 920.12 1209.71 920.46C1207.61 920.92 1206.03 921.4 1206.03 923.52C1206.03 925.14 1207.27 926.24 1209.29 926.24ZM1209.65 924.74C1208.61 924.74 1208.03 924.22 1208.03 923.44C1208.03 922.44 1208.91 922.1 1209.99 921.82C1210.91 921.6 1211.91 921.44 1212.49 921.04V922.2C1212.33 924.04 1211.03 924.74 1209.65 924.74ZM1215.33 929.8H1216.33C1218.59 929.8 1219.41 928.92 1220.27 926.68L1223.89 916.56H1221.81L1219.51 923.6L1216.99 916.56H1214.93L1218.57 925.82C1217.83 927.74 1217.53 928.02 1216.23 928.02H1215.33V929.8ZM1225.81 921.92H1226.47L1227.51 912.2V912.12H1224.73V912.2L1225.81 921.92ZM1224.91 926H1227.35V923.52H1224.91V926Z" fill="black"/>
<path d="M1186.31 898.32C1190.23 898.32 1192.25 896.64 1192.25 893.46C1192.25 890.76 1190.63 889.16 1187.71 889.16C1186.35 889.16 1185.41 889.44 1184.63 890L1185.13 888.22H1191.53V884.72H1182.13L1180.37 892.1L1184.29 892.98C1184.59 892.66 1184.97 892.12 1185.97 892.12C1186.97 892.12 1187.49 892.62 1187.49 893.56V893.58C1187.49 894.52 1186.99 894.98 1185.97 894.98C1185.11 894.98 1184.53 894.62 1184.41 893.64H1180.33C1180.33 896.74 1182.35 898.32 1186.31 898.32ZM1202.95 898.3C1206.79 898.3 1208.85 896.42 1208.85 893.28C1208.85 890.12 1206.83 888.26 1203.07 888.26C1199.25 888.26 1197.17 890.14 1197.17 893.28C1197.17 896.44 1199.17 898.3 1202.95 898.3ZM1203.01 895.52C1202.27 895.52 1201.99 895 1201.99 893.4V893.16C1201.99 891.56 1202.27 891.04 1203.01 891.04C1203.75 891.04 1204.03 891.56 1204.03 893.16V893.4C1204.03 895 1203.75 895.52 1203.01 895.52ZM1209.69 898H1214.39V893.6C1214.39 892.86 1214.67 892.46 1215.75 892.46H1217.27V888.56H1216.97C1215.63 888.56 1214.77 889.1 1214.39 890.2V888.56H1209.69V898ZM1222.09 898H1226.77V893.02C1226.77 891.92 1226.83 891.54 1227.49 891.54C1228.03 891.54 1228.19 891.92 1228.19 892.82V898H1232.85V893.02C1232.85 891.96 1232.89 891.54 1233.57 891.54C1234.11 891.54 1234.27 891.92 1234.27 892.82V898H1238.95V892.26C1238.95 889.44 1237.83 888.26 1235.69 888.26C1234.01 888.26 1232.93 888.94 1232.47 890.16C1232.15 888.94 1231.35 888.26 1229.65 888.26C1228.21 888.26 1227.19 888.94 1226.71 889.98V888.56H1222.09V898ZM1245.45 898.3C1249.29 898.3 1251.35 896.42 1251.35 893.28C1251.35 890.12 1249.33 888.26 1245.57 888.26C1241.75 888.26 1239.67 890.14 1239.67 893.28C1239.67 896.44 1241.67 898.3 1245.45 898.3ZM1245.51 895.52C1244.77 895.52 1244.49 895 1244.49 893.4V893.16C1244.49 891.56 1244.77 891.04 1245.51 891.04C1246.25 891.04 1246.53 891.56 1246.53 893.16V893.4C1246.53 895 1246.25 895.52 1245.51 895.52ZM1252.19 898H1256.89V893.6C1256.89 892.86 1257.17 892.46 1258.25 892.46H1259.77V888.56H1259.47C1258.13 888.56 1257.27 889.1 1256.89 890.2V888.56H1252.19V898ZM1265.72 898.28C1268.88 898.28 1270.36 897.36 1270.98 895.02L1267.58 894.42C1267.42 895.1 1266.8 895.48 1266.08 895.48C1265.18 895.48 1264.66 895.1 1264.58 894.08H1271.08V893.6C1271.08 890.16 1269.16 888.24 1265.68 888.24C1262.18 888.24 1260.16 890.18 1260.16 893.34C1260.16 896.48 1262.16 898.28 1265.72 898.28ZM1264.58 892.28C1264.62 891.32 1264.98 890.88 1265.72 890.88C1266.44 890.88 1266.72 891.32 1266.74 892.28H1264.58Z" fill="#8FC048"/>
<g clip-path="url(#clip4_707_3101)">
<g clip-path="url(#clip5_707_3101)">
<path d="M1077.67 806.86V787.667H1084.31V806.526C1084.31 811.427 1086.43 813.951 1090.7 813.951C1095.93 813.951 1098.35 809.459 1098.35 802.814V787.667H1104.85V819.223H1098.35V813.802C1097.62 815.657 1096.32 817.233 1094.64 818.306C1092.96 819.379 1090.98 819.895 1088.99 819.779C1081.9 819.779 1077.67 814.879 1077.67 806.86Z" fill="black"/>
<path d="M1111.83 787.667H1118.4V793.644C1119.07 791.635 1120.38 789.901 1122.13 788.708C1123.88 787.514 1125.97 786.927 1128.09 787.036C1134.89 787.036 1139.04 791.64 1139.04 800.067V819.222H1132.43V800.401C1132.43 795.426 1130.35 792.976 1126.08 792.976C1121.18 792.976 1118.4 797.06 1118.4 804.113V819.222H1111.83V787.667Z" fill="black"/>
<path d="M1145.43 787.667H1151.85V792.382C1152.97 790.698 1154.5 789.324 1156.29 788.389C1158.08 787.454 1160.08 786.989 1162.1 787.036C1170.2 787.036 1176.29 793.162 1176.29 803.259C1176.29 813.431 1170.2 819.816 1162.03 819.816C1160.05 819.852 1158.09 819.396 1156.32 818.489C1154.56 817.582 1153.05 816.252 1151.93 814.619V831.585H1145.43V787.667ZM1169.38 803.519V803.074C1169.38 796.317 1165.85 792.642 1160.43 792.642C1155.01 792.642 1151.52 797.06 1151.52 803.334V803.853C1151.52 810.09 1154.86 814.285 1160.43 814.285C1166 814.285 1169.38 810.35 1169.38 803.519Z" fill="black"/>
<path d="M1181.41 774.192H1188.02V819.223H1181.41V774.192Z" fill="black"/>
<path d="M1194.44 806.86V787.667H1201.05V806.526C1201.05 811.427 1203.21 813.951 1207.48 813.951C1212.68 813.951 1214.9 809.459 1214.9 802.814V787.667H1221.48V819.223H1215.09V813.802C1214.36 815.657 1213.06 817.233 1211.38 818.306C1209.7 819.379 1207.72 819.895 1205.73 819.779C1198.64 819.779 1194.44 814.879 1194.44 806.86Z" fill="black"/>
<path d="M1225.93 825.905C1226.04 824.284 1226.66 822.739 1227.7 821.492C1228.74 820.245 1230.15 819.359 1231.73 818.963C1230.36 818.795 1229.1 818.159 1228.15 817.164C1227.2 816.169 1226.63 814.876 1226.53 813.506C1226.53 810.758 1228.61 808.68 1232.21 807.863C1230.81 806.826 1229.68 805.476 1228.9 803.923C1228.12 802.369 1227.71 800.654 1227.71 798.916C1227.77 797.247 1228.16 795.607 1228.87 794.095C1229.58 792.583 1230.59 791.231 1231.83 790.12C1233.08 789.009 1234.54 788.163 1236.12 787.633C1237.71 787.103 1239.38 786.9 1241.05 787.036C1243.2 786.92 1245.35 787.348 1247.3 788.283C1249.25 789.217 1250.93 790.627 1252.18 792.382C1252.63 790.99 1253.52 789.779 1254.71 788.929C1255.9 788.08 1257.33 787.637 1258.79 787.668V794.498C1257.94 794.15 1256.99 794.066 1256.09 794.258C1255.18 794.449 1254.35 794.908 1253.71 795.575C1254 796.641 1254.16 797.738 1254.19 798.842C1254.19 806.007 1248.92 810.61 1240.9 810.61C1239.46 810.624 1238.04 810.423 1236.66 810.016H1236.22C1233.8 810.016 1232.5 810.944 1232.5 812.281C1232.5 813.617 1234.44 814.842 1237.37 814.842H1243.72C1253.74 814.842 1258.79 818.109 1258.79 824.531C1258.79 830.954 1252.44 834.852 1241.9 834.852C1231.35 834.852 1225.93 831.808 1225.93 825.905ZM1252.93 824.977C1252.93 821.858 1250.11 820.448 1243.5 820.448H1239.56C1235.29 820.448 1231.69 822.23 1231.69 825.385C1231.69 828.541 1235.4 830.063 1242.08 830.063C1248.77 830.063 1252.93 828.132 1252.93 824.977V824.977ZM1248.1 798.99V798.73C1247.97 796.924 1247.16 795.234 1245.83 794C1244.51 792.767 1242.76 792.081 1240.95 792.081C1239.14 792.081 1237.4 792.767 1236.07 794C1234.74 795.234 1233.93 796.924 1233.8 798.73V798.99C1233.93 800.797 1234.74 802.487 1236.07 803.72C1237.4 804.954 1239.14 805.64 1240.95 805.64C1242.76 805.64 1244.51 804.954 1245.83 803.72C1247.16 802.487 1247.97 800.797 1248.1 798.99V798.99Z" fill="black"/>
<path d="M1165.48 742.822C1216.5 742.822 1257.87 701.47 1257.87 650.459C1257.87 599.448 1216.5 558.095 1165.48 558.095C1114.46 558.095 1073.1 599.448 1073.1 650.459C1073.1 701.47 1114.46 742.822 1165.48 742.822Z" fill="#8FC048"/>
<path d="M1165.48 751.955C1145.4 751.955 1125.78 746.002 1109.08 734.849C1092.39 723.697 1079.37 707.845 1071.69 689.3C1064.01 670.754 1062 650.346 1065.91 630.658C1069.83 610.97 1079.5 592.885 1093.7 578.69C1107.89 564.496 1125.98 554.829 1145.68 550.913C1165.37 546.997 1185.78 549.007 1204.33 556.689C1222.88 564.371 1238.74 577.38 1249.89 594.071C1261.05 610.762 1267 630.385 1267 650.459C1266.97 677.368 1256.27 703.167 1237.23 722.195C1218.2 741.222 1192.4 751.925 1165.48 751.955V751.955ZM1165.48 567.191C1149.01 567.191 1132.91 572.074 1119.21 581.224C1105.51 590.373 1094.84 603.378 1088.53 618.593C1082.23 633.809 1080.58 650.551 1083.8 666.704C1087.01 682.856 1094.94 697.693 1106.59 709.338C1118.24 720.984 1133.08 728.914 1149.23 732.127C1165.39 735.34 1182.14 733.691 1197.35 727.389C1212.57 721.086 1225.58 710.413 1234.73 696.72C1243.88 683.027 1248.77 666.928 1248.77 650.459C1248.75 628.381 1239.97 607.213 1224.35 591.601C1208.74 575.989 1187.56 567.21 1165.48 567.191V567.191Z" fill="black"/>
<path d="M1165.48 751.955C1145.4 751.955 1125.78 746.002 1109.08 734.849C1092.39 723.697 1079.37 707.845 1071.69 689.3C1064.01 670.754 1062 650.346 1065.91 630.658C1069.83 610.97 1079.5 592.885 1093.7 578.69C1107.89 564.496 1125.98 554.829 1145.68 550.913C1165.37 546.997 1185.78 549.007 1204.33 556.689C1222.88 564.371 1238.74 577.38 1249.89 594.071C1261.05 610.762 1267 630.385 1267 650.459C1266.97 677.368 1256.27 703.167 1237.23 722.195C1218.2 741.222 1192.4 751.925 1165.48 751.955V751.955ZM1165.48 567.191C1149.01 567.191 1132.91 572.074 1119.21 581.224C1105.51 590.373 1094.84 603.378 1088.53 618.593C1082.23 633.809 1080.58 650.551 1083.8 666.704C1087.01 682.856 1094.94 697.693 1106.59 709.338C1118.24 720.984 1133.08 728.914 1149.23 732.127C1165.39 735.34 1182.14 733.691 1197.35 727.389C1212.57 721.086 1225.58 710.413 1234.73 696.72C1243.88 683.027 1248.77 666.928 1248.77 650.459C1248.75 628.381 1239.97 607.213 1224.35 591.601C1208.74 575.989 1187.56 567.21 1165.48 567.191V567.191Z" fill="black"/>
</g>
</g>
<defs>
<clipPath id="clip0_707_3101">
<rect width="203" height="285" fill="white" transform="translate(126 109)"/>
</clipPath>
<clipPath id="clip1_707_3101">
<rect width="203" height="286" fill="white" transform="translate(595 109)"/>
</clipPath>
<clipPath id="clip2_707_3101">
<rect width="203" height="286" fill="white" transform="translate(126 549)"/>
</clipPath>
<clipPath id="clip3_707_3101">
<rect width="203" height="286" fill="white" transform="translate(595 549)"/>
</clipPath>
<clipPath id="clip4_707_3101">
<rect width="203" height="286" fill="white" transform="translate(1064 549)"/>
</clipPath>
<clipPath id="clip5_707_3101">
<rect width="203" height="286" fill="white" transform="translate(1064 549)"/>
</clipPath>
</defs>
</svg>
